<?xml version="1.0" standalone="no"?>
<!DOCTYPE svg PUBLIC "-//W3C//DTD SVG 1.1//EN" "http://www.w3.org/Graphics/SVG/1.1/DTD/svg11.dtd" >
<svg xmlns="http://www.w3.org/2000/svg">
<metadata>
Created by FontForge 20120731 at Mon Jan  9 11:25:16 2017
 By admin
</metadata>
<defs>
<font id="iconfont" horiz-adv-x="1024" >
  <font-face 
    font-family="iconfont"
    font-weight="500"
    font-stretch="normal"
    units-per-em="1024"
    panose-1="2 0 6 3 0 0 0 0 0 0"
    ascent="896"
    descent="-128"
    x-height="792"
    bbox="-0.75 -212 1026 896"
    underline-thickness="0"
    underline-position="0"
    unicode-range="U+0078-E699"
  />
<missing-glyph 
 />
    <glyph glyph-name=".notdef" 
 />
    <glyph glyph-name=".notdef" 
 />
    <glyph glyph-name=".null" horiz-adv-x="0" 
 />
    <glyph glyph-name="nonmarkingreturn" horiz-adv-x="341" 
 />
    <glyph glyph-name="x" unicode="x" horiz-adv-x="1001" 
d="M281 543q-27 -1 -53 -1h-83q-18 0 -36.5 -6t-32.5 -18.5t-23 -32t-9 -45.5v-76h912v41q0 16 -0.5 30t-0.5 18q0 13 -5 29t-17 29.5t-31.5 22.5t-49.5 9h-133v-97h-438v97zM955 310v-52q0 -23 0.5 -52t0.5 -58t-10.5 -47.5t-26 -30t-33 -16t-31.5 -4.5q-14 -1 -29.5 -0.5
t-29.5 0.5h-32l-45 128h-439l-44 -128h-29h-34q-20 0 -45 1q-25 0 -41 9.5t-25.5 23t-13.5 29.5t-4 30v167h911zM163 247q-12 0 -21 -8.5t-9 -21.5t9 -21.5t21 -8.5q13 0 22 8.5t9 21.5t-9 21.5t-22 8.5zM316 123q-8 -26 -14 -48q-5 -19 -10.5 -37t-7.5 -25t-3 -15t1 -14.5
t9.5 -10.5t21.5 -4h37h67h81h80h64h36q23 0 34 12t2 38q-5 13 -9.5 30.5t-9.5 34.5q-5 19 -11 39h-368zM336 498v228q0 11 2.5 23t10 21.5t20.5 15.5t34 6h188q31 0 51.5 -14.5t20.5 -52.5v-227h-327z" />
    <glyph glyph-name="shuaxin" unicode="&#xe63d;" horiz-adv-x="1000" 
d="M632 101q-73 -51 -163 -50q-8 0 -23 1q-2 0 -9 1l-18 3q-1 0 -10 2q-11 3 -17 5q-1 0 -4 1t-4 1q-10 4 -19 7l-4 2q-13 6 -21 10l-0.5 0.5l-0.5 0.5q-36 19 -64 47v0.5t-1 0.5q-9 10 -16 19q-2 2 -3 4q-61 76 -61 173h73l-117 176l-118 -176h74q0 -113 64 -207
q1 -1 1.5 -2l0.5 -1q2 -4 13 -17q1 -2 3 -4t2 -3q8 -9 21 -23q2 -1 2 -2q37 -37 83 -62h1l1 -1q13 -7 27 -13q1 -1 3 -2t4 -1q8 -3 23 -9q7 -2 12 -4q10 -3 21 -5q13 -3 14 -3q5 -2 6 -2q4 0 21 -2q5 -1 7 -2q20 -1 37 -1q115 0 209 66q15 11 18.5 28.5t-7.5 32.5
q-10 15 -28 18.5t-33 -7.5zM839 329q0 114 -65 207q0 1 -0.5 2l-0.5 1q-7 9 -17 21q0 1 -1 3q-57 68 -137 103q-1 0 -2.5 0.5t-2.5 0.5q-9 4 -26 10q-8 3 -9 3q-9 3 -23 6q-2 0 -6 1t-7 2q-1 0 -3 0.5t-3 0.5q-3 1 -18 3q-2 0 -5.5 0.5t-6.5 0.5q-12 1 -29 2h-2h-3h-1
q-115 0 -209 -66q-15 -11 -18 -29t7.5 -33t28.5 -18t32 8q73 51 162 50q13 0 25 -2h7q13 -2 20 -4q1 0 8 -1q12 -3 19 -5l6 -2q12 -4 21 -8l1 -0.5l1 -0.5q62 -26 105 -79h1q63 -77 63 -177h-74l118 -176l117 176h-73z" />
    <glyph glyph-name="shuaxin1" unicode="&#xe648;" 
d="M702 64q-80 -56 -178 -55q-12 0 -25 1q-2 0 -5.5 0.5t-4.5 1.5q-13 1 -19 2q-1 1 -11 3q-12 3 -19 5l-8 3q-13 4 -21 7q0 1 -4 3q-14 6 -24 11h-1q-38 22 -69 53v1h-1l-18 20q-1 1 -2 2.5t-2 2.5q-66 84 -66 192h70q3 0 4.5 2.5t0.5 4.5l-119 180q-1 3 -4 3t-4 -3
l-119 -180q-2 -2 -0.5 -4.5t4.5 -2.5h71q0 -126 71 -230l0.5 -1t0.5 -2q3 -3 15 -19q0 -1 2 -3.5t3 -3.5q10 -12 23 -26q2 -2 3 -2q40 -41 90 -68l2 -2q13 -7 29 -14q1 -1 3.5 -2t4.5 -1q10 -5 25 -10q10 -3 13 -4q8 -3 23 -6q13 -3 16 -4q1 0 3 -0.5t3 -0.5q5 -1 23 -3
q1 -1 3.5 -1h4.5q22 -3 40 -3q125 0 228 74q17 11 20.5 31t-8 36.5t-31 20t-36.5 -8.5zM928 317q0 125 -71 228q0 1 -0.5 2t-0.5 2q-6 7 -18 23l-1 1l-1 1q-61 75 -149 114q-1 0 -2.5 1t-2.5 1q-12 5 -28 11q-1 0 -3 0.5t-4 1.5t-3 1q-10 3 -26 7q-12 2 -14 3q-1 0 -3 0.5
t-4 0.5q-3 1 -10 2t-9 1q-1 0 -5.5 0.5t-7.5 0.5q-13 2 -31 2h-3h-3h-0.5h-0.5q-126 0 -228 -73q-17 -11 -20.5 -31t8 -36.5t31 -20t36.5 8.5q79 56 176 55q14 0 27 -1q1 0 4 -0.5t4 -0.5q12 -2 21 -4q1 0 10 -2l20 -5q1 -1 3.5 -1.5t3.5 -0.5q12 -5 22 -9q1 0 1.5 -0.5
t1.5 -0.5q67 -29 114 -87h0.5t0.5 -1q69 -85 69 -194h-71q-3 0 -4.5 -3t0.5 -5l119 -180q1 -3 4 -3t4 3l119 180q1 2 -0.5 5t-4.5 3h-70v0z" />
    <glyph glyph-name="dian" unicode="&#xe63a;" 
d="M415 397h192v-192h-192v192z" />
    <glyph glyph-name="sousuo" unicode="&#xe638;" 
d="M455.5 7q-95.5 0 -177 47.5t-129 129t-47.5 177t47.5 177t129 129t177 47.5t177 -47.5t129 -129t47.5 -177t-47.5 -177t-129 -129t-177 -47.5zM455.5 627q-110.5 0 -188.5 -78t-78 -188.5t78 -188.5t188.5 -78t188.5 78t78 188.5t-78 188.5t-188.5 78zM868 -106
q-22 0 -38 16l-184 184q-16 16 -16 38t15.5 38t38 16t38.5 -16l184 -185q16 -15 16 -37.5t-16 -38t-38 -15.5v0z" />
    <glyph glyph-name="daoru" unicode="&#xe619;" 
d="M734 395q2 3 1 6t-5 3h-137v203q0 6 -4.5 10.5t-10.5 4.5h-134q-6 0 -10.5 -4.5t-4.5 -10.5v-203h-137q-4 0 -5 -3t1 -6l213 -197q4 -4 10 -4t10 4l213 197v0zM945 186l-133 103q-14 11 -31 11h-53l151 -128h-175l-65 -93h-257l-62 93h-174l156 128h-61q-17 0 -31 -11
l-133 -103q-14 -11 -9 -28l54 -162q2 -7 8.5 -12t13.5 -5h735q7 0 13.5 5t8.5 12l53 162q5 17 -9 28z" />
    <glyph glyph-name="iconfontcha" unicode="&#xe61f;" 
d="M755 599l-243 -242l-243 242q-10 10 -23.5 10t-23.5 -9.5t-10 -23.5t10 -24l243 -243l-243 -243q-10 -9 -10 -23t10 -24t23.5 -10t23.5 10l243 243l243 -243q10 -10 23.5 -10t23.5 10t10 24t-10 23l-243 243l243 243q10 10 10 24t-10 23.5t-23.5 9.5t-23.5 -10z" />
    <glyph glyph-name="guanggaoliebiao" unicode="&#xe600;" 
d="M193 384h455v-91h-455v91zM193 244h364v-91h-364v91zM887 176v-136q0 -14 -10 -24t-24 -10h-682q-14 0 -24 10t-10 24v136h-68v-136q0 -42 30 -72t72 -30h682q42 0 72 30t30 72v136h-68zM507 433h-49l-35 94h-143l-33 -94h-49l130 343h48zM409 566l-52 143q-2 6 -5 23h-1
q-3 -15 -6 -23l-51 -143h115zM556 433v343h98q78 0 130 -45.5t52 -121.5q0 -80 -52 -128t-133 -48h-95zM601 737v-265h49q66 0 102.5 36t36.5 100t-37.5 96.5t-99.5 32.5h-51z" />
    <glyph glyph-name="shezhi" unicode="&#xe601;" 
d="M644 -105v0q-25 0 -41 18q-16 17 -42.5 35t-48.5 18q-23 0 -49.5 -18t-41.5 -34q-16 -18 -41 -18q-11 0 -21 5h-1l-107 60l-1 1q-14 10 -19 27.5t2 33.5q10 23 10 43q0 47 -33 80t-80 33h-4v0q-14 0 -24 11t-13 30q-10 48 -10 85t10 85q3 19 13.5 30t23.5 10h4
q47 0 80 33.5t33 79.5q0 21 -10 44q-7 16 -2 33.5t19 27.5l2 1l112 62h1q10 4 21 4q25 0 41 -16q15 -17 41 -34t48 -17t47.5 17t41.5 33t40 16q12 0 21 -4l2 -1l108 -60l1 -1q15 -10 20 -27.5t-2 -33.5q-10 -23 -10 -44q0 -46 33 -79.5t80 -33.5h3q14 1 24.5 -10t13.5 -30
q9 -48 9 -85t-9 -85q-3 -19 -13.5 -30t-24.5 -11h-3q-47 0 -80 -33t-33 -80q0 -20 10 -43q7 -16 2 -33.5t-20 -27.5l-1 -1l-110 -61l-1 -1q-10 -4 -21 -4zM641 -53q1 -1 3 -1v0l103 57q-13 33 -13 63q0 66 45 113.5t110 50.5q8 45 8 75t-8 75q-65 3 -110 50.5t-45 112.5
q0 31 13 64l-101 56h-1q-2 0 -3 -1q-16 -16 -38 -32q-47 -33 -88 -33t-89 34q-22 16 -37 32q-2 1 -4 1h-1l-105 -57q14 -33 14 -64q0 -65 -45 -112.5t-110 -50.5q-8 -45 -8 -75t8 -75q65 -3 110 -50.5t45 -113.5q0 -30 -14 -63l100 -55v0h3q16 18 38 34q49 35 91 35t90 -36
q23 -16 39 -34zM512 155q-62 0 -106 44t-44 106.5t44 106.5t106 44t106 -44t44 -106.5t-44 -106.5t-106 -44zM512 405q-41 0 -70 -29t-29 -70.5t29 -70.5t70 -29t70 29t29 70.5t-29 70.5t-70 29z" />
    <glyph glyph-name="yulan" unicode="&#xe639;" 
d="M305 260zM730 427zM596 554zM795 494q-24 33 -60 70q-37 37 -70 61q-40 29 -64 29h-346q-23 0 -39.5 -16.5t-16.5 -39.5v-603q0 -23 16.5 -39.5t39.5 -16.5h514q23 0 39.5 16.5t16.5 39.5v436q0 23 -30 63zM703 532q30 -30 51 -57h-108v108q27 -21 57 -51v0zM780 -5
q0 -5 -3 -8t-8 -3h-514q-5 0 -8 3t-3 8v603q0 5 3 8t8 3h346v-156q0 -9 6.5 -15.5t16.5 -6.5h156v-436zM707 70l-126 126q34 42 34 96q0 65 -45.5 110.5t-109.5 45.5t-109.5 -45.5t-45.5 -110t45.5 -110t109.5 -45.5q51 0 86 25l127 -126q9 -9 17 0l17 16q9 9 0 18zM460 191
q-42 0 -72 29.5t-30 71.5t30 72t72 30t71.5 -30t29.5 -72t-29.5 -71.5t-71.5 -29.5z" />
    <glyph glyph-name="zanting" unicode="&#xe62a;" 
d="M512 812q-104 0 -199 -40.5t-163.5 -109t-109 -163.5t-40.5 -199t40.5 -199t109 -163.5t163.5 -109t199 -40.5t199 40.5t163.5 109t109 163.5t40.5 199t-40.5 199t-109 163.5t-163.5 109t-199 40.5zM512 -148q-91 0 -174 35.5t-143 95.5t-95.5 143t-35.5 174t35.5 174
t95.5 143t143 95.5t174 35.5t174 -35.5t143 -95.5t95.5 -143t35.5 -174t-35.5 -174t-95.5 -143t-143 -95.5t-174 -35.5zM743 340l-280 171l-4 2q-23 10 -47 10q-30 0 -47.5 -18.5t-17.5 -48.5v-325l1 -5q6 -17 22.5 -32.5t41.5 -15.5v0q18 0 37 10l277 157l3 2
q10 7 17.5 19.5t9.5 30t-9 35.5zM419 145q-4 -3 -7 -3q-1 1 -1 2v312v3q9 1 21 -4l257 -157z" />
    <glyph glyph-name="touxiang" unicode="&#xe63b;" 
d="M939 -145l-39 167q-13 64 -34 87q-12 12 -56.5 28t-90.5 29.5t-84 35.5t-41 45q-5 35 -3 59q24 22 37 45q11 19 21 57q16 1 30 47q6 19 3 34t-13 18q20 81 -5 134q-5 13 -2 26.5t-2 36t-22 41.5q-10 -16 -34 -16.5t-51 8t-58.5 10.5t-58.5 -10q-39 -20 -48 -60
q-25 -21 -33 -60q-13 -63 1 -111q-8 -5 -10 -19t3 -32q15 -46 30 -47q10 -38 21 -57q16 -26 41 -48h1q0 -36 -3 -56q-3 -23 -41.5 -44.5t-84 -35.5t-90.5 -30t-56 -28q-12 -14 -39.5 -105.5t-41.5 -148.5h853z" />
    <glyph glyph-name="zhanghu" unicode="&#xe602;" 
d="M322 213h67v-67h-67v67zM227 213h67v-67h-67v67zM844 570h-657q-16 0 -27.5 -11.5t-11.5 -27.5v-464q0 -16 11.5 -27.5t27.5 -11.5h657q16 0 27.5 11.5t11.5 27.5v49v0v0q0 8 -5.5 13.5t-13 5.5t-13 -5.5t-5.5 -13.5v0v0v-51h-662v304h662v-145v0q0 -8 5.5 -13t13 -5
t13 5t5.5 13v0v307q0 16 -11.5 27.5t-27.5 11.5v0zM184 533h662v-59h-662v59v0zM184 406v32h662v-32h-662v0zM418 213h67v-67h-67v67z" />
    <glyph glyph-name="guanbi" unicode="&#xe620;" 
d="M512 739q-117 0 -216.5 -58t-157.5 -157.5t-58 -216.5t58 -216.5t157.5 -157.5t216.5 -58t216.5 58t157.5 157.5t58 216.5t-58 216.5t-157.5 157.5t-216.5 58zM721 150l-53 -52l-156 157l-156 -157l-53 52l157 157l-157 156l52 53l157 -157l156 157l53 -53l-157 -156z
" />
    <glyph glyph-name="xiaoxiweixuanzhong" unicode="&#xe603;" 
d="M676 -50zM513 619h295q55 0 89 -33.5t34 -89.5v-422q0 -57 -34 -91t-91 -34h-588q-56 0 -90 34t-34 90v424q0 55 34 88.5t89 33.5h296zM512 559h-154h-149q-41 0 -52 -33q-11 -31 -2 -61t35 -49q55 -39 271 -189q53 -37 107 0q2 2 8 5.5t9 5.5q219 152 239 166
q54 36 48 94q-4 34 -17 47.5t-46 13.5h-297zM858 27q-144 144 -193 192q-3 2 -8.5 1.5t-9.5 -2.5q-8 -5 -28 -19t-31 -20q-66 -37 -111 -15q-36 17 -92 53q-15 9 -27 -3l-178 -178q0 -1 -13 -16q39 -10 41 -10q9 -1 80 -1h260h260q12 0 18.5 0.5t15.5 5t16 12.5zM156 375
v-276l1 1l1 1l1 1l1 1l1 1l1 1l1 1l1 1l1 1l1 1l1 1l1 1l1 1l1 1l1 1l1 1l1 1l1 1l1 1l1 1l1 1l1 1l1 1l1 1l1 1l1 1l1 1l1 1l1 1l1 1l1 1l1 1l1 1l1 1l1 1v1l1 1l1 1l1 1l1 1l1 1l1 1l1 1l1 1l1 1l1 1l1 1l1 1l1 1l1 1l1 1l1 1l1 1l1 1l1 1l1 1l1 1l1 1l1 1l1 1l1 1l1 1
l1 1l1 1l1 1l1 1l1 1l1 1l1 1l1 1l1 1l1 1l1 1l1 1l1 1l1 1l1 1l1 1l1 1l1 1l1 1l1 1l1 1l1 1h1l1 1l1 1l1 1l1 1l1 1l1 1l1 1l1 1l1 1l1 1l1 1l1 1l1 1l1 1l1 1l1 1l1 1l1 1l1 1l1 1l1 1l1 1l1 1l1 1l1 1l1 1l1 1l1 1l1 1l1 1l1 1l1 1l1 1l1 1l1 1l1 1l1 1l1 1l1 1l1 1v1
l1 1l1 1l1 1l1 1l1 1l1 1l1 1l1 1l1 1l1 1l1 1l1 1l1 1l1 1l1 1l1 1l1 1l1 1l1 1l1 1l1 1l1 1l1 1l1 1l1 1l1 1l1 1l1 1l1 1l1 1l1 1l1 1l1 1l1 1l1 1l1 1l1 1l2 2q-94 64 -163 112zM870 373q-141 -96 -161 -111l1 -1l1 -1l1 -1l1 -1l1 -1l1 -1l1 -1l1 -1l1 -1l1 -1l1 -1
l1 -1l1 -1l1 -1l1 -1l1 -1l1 -1l1 -1l1 -1l1 -1l1 -1l1 -1l1 -1l1 -1l1 -1l1 -1l1 -1l1 -1l1 -1l1 -1l1 -1l1 -1l1 -1l1 -1l1 -1l1 -1l1 -1l1 -1l1 -1l1 -1l1 -1l1 -1l1 -1l1 -1l1 -1l1 -1l1 -1l1 -1l1 -1l1 -1l1 -1l1 -1l1 -1l1 -1l1 -1l1 -1l1 -1l1 -1l1 -1l1 -1l1 -1
l1 -1l1 -1l1 -1l1 -1l1 -1l1 -1l1 -1l1 -1l1 -1l1 -1l1 -1l1 -1l1 -1l1 -1l1 -1l1 -1l1 -1l1 -1l1 -1l1 -1l1 -1l1 -1l1 -1l1 -1l1 -1l1 -1l1 -1l1 -1l1 -1l1 -1l1 -1l1 -1l1 -1l1 -1l1 -1l1 -1l1 -1l1 -1l1 -1l1 -1l1 -1l1 -1l1 -1l1 -1l1 -1l1 -1l1 -1l1 -1l1 -1l1 -1
l1 -1l1 -1l1 -1l1 -1l1 -1l1 -1l1 -1l1 -1l1 -1l1 -1v-1l1 -1l2 -2l1 -1l1 -1l1 -1l1 -1l1 -1l1 -1l1 -1l1 -1l1 -1l1 -1l1 -1l1 -1l1 -1l1 -1l1 -1l1 -1l1 -1l1 -1l1 -1l1 -1l1 -1l1 -1l1 -1l1 -1l1 -1l1 -1l1 -1l1 -1l1 -1l1 -1l1 -1l1 -1l1 -1l1 -1l1 -1l2 -2v273z" />
    <glyph glyph-name="jinru" unicode="&#xe61a;" 
d="M215 -114l493 414l-493 414q-13 10 -14.5 27t9.5 30l5 6q11 13 28 14.5t29 -9.5l527 -441q5 -4 10 -9v0q15 -13 15 -32t-15 -32v0q-5 -5 -10 -9l-527 -441q-12 -11 -29 -9.5t-28 14.5l-5 6q-11 13 -9.5 30t14.5 27z" />
    <glyph glyph-name="youhui" unicode="&#xe62e;" 
d="M983.5 235q-14.5 3 -27 -5t-15.5 -23q-20 -91 -76 -167q-71 -94 -177.5 -139t-221 -31.5t-208.5 83.5q-70 52 -113.5 126t-56 160t9 168.5t73.5 152.5q70 94 176.5 139t221 32t208.5 -84q60 -45 102 -108t59 -136q4 -14 17 -22t27.5 -4.5t22 16.5t4.5 27
q-21 86 -69.5 159t-118.5 126q-110 82 -244 97.5t-258 -37t-206 -162.5q-61 -81 -85.5 -178t-10.5 -197t65 -186t132 -147q135 -101 302 -101q37 0 73 6q101 14 187 65t146 132q66 88 90 195q3 15 -5.5 27.5t-23 15.5zM655 299q15 0 25.5 10.5t10.5 25t-10.5 25t-25.5 10.5
h-108v17l132 139q10 10 10 25t-10.5 25t-25.5 10t-25 -11l-113 -119l-121 120q-10 10 -25 10t-25.5 -10.5t-10.5 -25.5t10 -25l132 -133v-22h-106q-14 0 -24.5 -10.5t-10.5 -25t10.5 -25t24.5 -10.5h106v-72h-106q-14 0 -24.5 -10.5t-10.5 -25t10.5 -25t24.5 -10.5h106v-106
q0 -15 10.5 -25.5t25.5 -10.5t25.5 10.5t10.5 25.5v106h108q15 0 25.5 10.5t10.5 25.5t-10.5 25t-25.5 10h-108v72h108z" />
    <glyph glyph-name="tianjia" unicode="&#xe604;" 
d="M863 249h-302v-302h-100v302h-302v101h302v302h100v-302h302v-101z" />
    <glyph glyph-name="shanchu" unicode="&#xe63f;" horiz-adv-x="1025" 
d="M512 812q-104 0 -199 -40.5t-163.5 -109.5t-109 -163.5t-40.5 -198.5t40.5 -199t109.5 -163.5t163.5 -109t198.5 -40.5t199 40.5t163.5 109.5t109 163.5t40.5 198.5t-40 199t-109 163.5t-164 109t-199 40.5zM512 -155q-92 0 -176.5 36t-145.5 97t-97 145t-36 177
q0 92 36 176.5t97 145.5t145 97t177 36q92 0 176.5 -36t145.5 -97t97 -145t36 -177t-35.5 -177t-96.5 -145t-145.5 -97t-177.5 -36zM708 436l-59 59l-137 -137l-136 137l-58 -59l137 -136l-137 -137l58 -59l136 137l137 -137l59 59l-137 137z" />
    <glyph glyph-name="jingzhun" unicode="&#xe62f;" 
d="M861 322q0 13 -9.5 22.5t-23 9.5t-23 -9.5t-9.5 -22.5q0 -7 3 -14q5 -28 5 -66q0 -151 -99.5 -250t-250.5 -99t-250 99t-99 250t99 250t250 99q44 0 65 -4v1q0 -1 1 -1h2q13 0 22 9.5t9 21.5q0 11 -7 19.5t-17 11.5v2q-33 6 -75 6q-112 0 -207.5 -55.5t-151 -151
t-55.5 -208t55.5 -208t151 -151t208 -55.5t208 55.5t151 151t55.5 207.5q0 38 -8 79v0v1zM363 -49h0.5h0.5l4 -1l1.5 -0.5t2.5 -0.5q19 0 23 23q1 6 -2 11.5t-7 7.5l-3 2q-72 23 -126 77q-13 12 -21 12q-10 0 -16.5 -7t-6.5 -16q0 -11 9 -18v0q60 -63 141 -90zM450 375h1.5
h1.5q14 0 23.5 9.5t9.5 23.5q0 13 -9 22.5t-23 9.5v1q-82 0 -140.5 -58.5t-58.5 -140.5t58.5 -140.5t140.5 -58.5t140 57.5t59 139.5v1q1 2 1 3q0 13 -10 22.5t-23.5 9.5t-23 -9.5t-9.5 -22.5v-1.5v-0.5v0q0 -62 -36 -97.5t-98 -35.5t-97.5 35.5t-35.5 97.5q0 61 34.5 96.5
t94.5 36.5zM984 574l-182 15l-16 183l-65 -66v0l-133 -117v0v-163l-182 -166l34 -51l198 182h164v1v-1l132 133v0v0zM767 441h-114v114l83 83v-114h114zM200 145q-7 7 -16.5 7t-16 -7t-6.5 -16q0 -5 13 -26q0 -1 0.5 -1.5l0.5 -0.5l8 -9q6 -4 12 -4q10 0 16.5 7t6.5 17
q0 2 -1 7z" />
    <glyph glyph-name="403" unicode="&#xe623;" horiz-adv-x="1025" 
d="M938 195q-37 -141 -153.5 -232.5t-265.5 -91.5q-88 0 -168.5 34t-138.5 92t-92 138.5t-34 168.5t34 168t92 138t138.5 92.5t168.5 34.5q149 0 265.5 -92t153.5 -233q13 3 26 3q6 0 14 -1q-38 158 -166 260t-293 102q-97 0 -184 -37.5t-150.5 -100.5t-101 -150.5
t-37.5 -183.5t37.5 -183.5t101 -151t150.5 -101t184 -37.5q165 0 293 102.5t166 259.5q-8 -1 -14 -1q-13 0 -26 3zM512 487q24 0 40.5 -16t16.5 -38h29q0 33 -25 56.5t-61 23.5t-61 -23.5t-25 -56.5h29q0 22 16.5 38t40.5 16zM512 281q6 0 10 4t4 10v25q15 8 15 24
q0 11 -8.5 18.5t-20.5 7.5t-20.5 -7.5t-8.5 -18.5q0 -16 15 -24v-25q0 -6 4 -10t10 -4zM852 292v14l-56 -25l-33 12l12 31l58 25l-10 10q-15 15 -35 22q-38 15 -76 -2q-27 -12 -43 -35.5t-16 -52.5l-227 -100q-13 11 -29 17q-39 15 -76 -2q-29 -12 -45 -38t-15 -57l1 -14
l57 25l31 -11l-13 -33l-56 -24l10 -10q15 -15 34 -22q39 -15 76 2q27 11 43 35t17 53l226 100q13 -11 30 -17q38 -15 76 2q28 12 44 38t15 57zM723 213q-15 6 -27 17l-5 5l-249 -111v-6q1 -25 -12 -46t-36 -31q-31 -13 -62 -1q-9 3 -16 8l36 16l23 58l-57 21l-37 -17
q6 45 47 63q31 13 62 1q16 -6 28 -17l4 -5l250 110v7q-1 25 12 46t36 31q30 13 62 1q8 -3 16 -8l-37 -17l-23 -56l58 -22l37 16q-7 -44 -48 -62q-30 -14 -62 -1zM470 106q-1 -20 -10 -38h226v33h-116v49zM603 279l25 11v105q0 7 -5 11.5t-12 4.5h-198q-7 0 -12 -4.5
t-5 -11.5v-139q0 -7 5 -11.5t12 -4.5h101l60 26h-138q-6 0 -11 5t-5 11v93q0 6 5 11t11 5h152q6 0 11 -5t5 -11v-93q0 -1 -1 -3zM795 292v30l-12 -5l-7 -18zM449 211h-35q7 -4 14 -9zM780 182q-14 -4 -27 -4q-21 0 -40 8q-15 5 -27 15l-52 -23h131q8 0 15 4zM792 390
q1 0 2 -0.5l1 -0.5v151q0 13 -8.5 21.5t-21.5 8.5h-506q-13 0 -21.5 -8.5t-8.5 -21.5v-333q0 -12 8.5 -20.5t21.5 -8.5h12q15 21 37 33h-29q-9 0 -15 6t-6 14v290q0 8 6 14t15 6h463q9 0 15 -6t6 -14v-124q15 -1 29 -7z" />
    <glyph glyph-name="xiaoguofenxi" unicode="&#xe630;" 
d="M695 40h-546q-38 0 -64.5 26.5t-26.5 64.5v416q0 38 26.5 64.5t64.5 26.5h546h74h123q-20 28 -51 44.5t-66 16.5h-632q-59 0 -101 -42t-42 -101v-445q0 -59 41.5 -96t101.5 -37h632q39 0 71 16.5t51 45.5h-128h-74zM979 588h-65h-63h-47q-19 0 -32 -13t-13 -31v-410
q0 -18 13 -31t32 -13h47h65h63q18 0 31 13t13 31v410q0 18 -13 31t-31 13zM991 151q0 -12 -8.5 -20t-20.5 -8h-44h-58h-39q-12 0 -20.5 8t-8.5 20v376q0 12 8.5 20.5t20.5 8.5h39h58h44q12 0 20.5 -8.5t8.5 -20.5v-376v0zM907 527h-37h-9h-1v-15h1h9h37h11h5v15h-5h-11z
M891 182q-8 0 -13.5 -5.5t-5.5 -13.5t5.5 -13.5t13.5 -5.5q6 0 11 3q9 6 9 16q0 6 -4 11q-6 8 -16 8zM680.5 175q20.5 0 35.5 14.5t15 35t-15 35t-35 14.5q-13 0 -25 -7l-97 104q2 5 3 10q2 8 2 16q0 29 -20.5 49.5t-49.5 20.5t-49.5 -20.5t-20.5 -49.5v-5q0 -5 1 -10
l-112 -70q-28 25 -66 25q-42 0 -71.5 -29.5t-29.5 -71t29.5 -71.5t71 -30t71.5 30t30 71q0 18 -7 35l102 77q21 -21 51 -21q28 0 49 20l98 -93q-10 -13 -10 -30q0 -20 14.5 -34.5t35 -14.5zM628 -69h-298q-11 0 -18 -5.5t-7 -12.5v-1q0 -7 7 -12.5t18 -5.5h298
q10 0 17.5 5.5t7.5 12.5v1q0 7 -7.5 12.5t-17.5 5.5z" />
    <glyph glyph-name="zhankaizhankai" unicode="&#xe624;" 
d="M709 458l-197 -197l-196 197l-60 -60l256 -256l256 256z" />
    <glyph glyph-name="shanchu1" unicode="&#xe605;" 
d="M773 516l1 -566q0 -45 -42 -45l-432 1q-43 0 -43 43v567h-67v-567q0 -45 31.5 -76.5t76.5 -31.5h431q45 0 76.5 31.5t31.5 76.5v567h-64zM347 395v-402q0 -4 1 -7h60q1 3 1 7v401q-30 0 -62 1zM618 393v-400q0 -3 1 -6h60v6v400h-61zM891 625h-181v67q1 68 -89 68h-215
q-87 0 -87 -66v-69h-185v-66h757v66v0zM649 625h-270v47q0 11 7 19.5t19 8.5l215 -1q12 0 20 -7.5t8 -18.5l1 -48v0zM485 393v-400q0 -3 1 -6h59q1 3 1 6v400h-61z" />
    <glyph glyph-name="xiaoyifenxi" unicode="&#xe631;" horiz-adv-x="1026" 
d="M959 792h-892q-28 0 -47.5 -20t-19.5 -47v-625q0 -27 19.5 -46.5t47.5 -19.5h892q27 0 47 19.5t20 46.5v625q0 27 -20 47t-47 20v0zM959 123q0 -9 -6.5 -15.5t-16.5 -6.5h-847q-9 0 -15.5 6.5t-6.5 15.5v579q0 10 6.5 16.5t15.5 6.5h847q10 0 16.5 -6.5t6.5 -16.5v-579v0
zM691 -37q0 9 -6.5 15.5t-15.5 6.5h-312q-10 0 -16.5 -6.5t-6.5 -15.5v-89h-223v-67h803v67h-223v89v0zM626 377l-99 -100l-162 167l-209 -218l33 -34l175 185l164 -167l98 97l172 -170l82 308l-42 14l-63 -235zM456 534q66 -130 66 -163q31 104 57 154q18 22 18 51
q0 33 -22 56.5t-53.5 23.5t-54 -23.5t-22.5 -56.5q0 -22 12 -42h-1v0zM456 534z" />
    <glyph glyph-name="buzou1" unicode="&#xe642;" 
d="M512 688q-105 0 -194.5 -52t-141.5 -141.5t-52 -194.5t52 -194.5t141.5 -141.5t194.5 -52t194.5 52t141.5 141.5t52 194.5t-52 194.5t-141.5 141.5t-194.5 52zM512 -24q-88 0 -162.5 43.5t-118 118t-43.5 162.5t43.5 162.5t118 118t162.5 43.5t162.5 -43.5t118 -118
t43.5 -162.5t-43.5 -162.5t-118 -118t-162.5 -43.5zM588 507q-23 -2 -53 -2h-47q-33 0 -52 3v-66q29 3 53 3h25v-285q0 -41 -4 -68h78q-4 29 -4 68v262q0 44 4 85z" />
    <glyph glyph-name="buzou2" unicode="&#xe643;" 
d="M512 688q-105 0 -194.5 -52t-141.5 -141.5t-52 -194.5t52 -194.5t141.5 -141.5t194.5 -52t194.5 52t141.5 141.5t52 194.5t-52 194.5t-141.5 141.5t-194.5 52zM512 -24q-88 0 -162.5 43.5t-118 118t-43.5 162.5t43.5 162.5t118 118t162.5 43.5t162.5 -43.5t118 -118
t43.5 -162.5t-43.5 -162.5t-118 -118t-162.5 -43.5zM447 152q10 27 30 47q22 24 61 52q70 48 87 63q37 35 37 83q0 54 -39.5 84.5t-107.5 30.5q-78 0 -118 -46q-26 -31 -36 -83l74 -9q5 32 16 48q20 30 66 30q33 0 52 -15t19 -42q0 -19 -13 -35t-49 -41q-60 -40 -85 -62
q-50 -46 -71 -102q-9 -25 -14 -66q23 2 67 2h166q42 0 79 -3v69q-28 -5 -76 -5h-145z" />
    <glyph glyph-name="buzou3" unicode="&#xe644;" 
d="M512 688q-105 0 -194.5 -52t-141.5 -141.5t-52 -194.5t52 -194.5t141.5 -141.5t194.5 -52t194.5 52t141.5 141.5t52 194.5t-52 194.5t-141.5 141.5t-194.5 52zM512 -24q-88 0 -162.5 43.5t-118 118t-43.5 162.5t43.5 162.5t118 118t162.5 43.5t162.5 -43.5t118 -118
t43.5 -162.5t-43.5 -162.5t-118 -118t-162.5 -43.5zM573 308q36 10 50 20q36 27 36 77t-39 80t-104 30q-62 0 -101 -28q-19 -13 -29.5 -29t-20.5 -45l75 -13q7 27 21 40q20 16 57 16q33 0 50.5 -14.5t17.5 -41.5q0 -29 -21.5 -46t-60.5 -17q-30 0 -51 2v-64q22 3 56 3
q38 0 59 -13q29 -17 29 -54q0 -31 -22.5 -49t-60.5 -18q-37 0 -63 20q-16 13 -24 42l-74 -14q12 -39 29 -58q43 -49 131 -49q84 0 127 42q31 31 31 75t-24 72q-25 27 -74 34z" />
    <glyph glyph-name="buzou4" unicode="&#xe645;" 
d="M512 688q-105 0 -194.5 -52t-141.5 -141.5t-52 -194.5t52 -194.5t141.5 -141.5t194.5 -52t194.5 52t141.5 141.5t52 194.5t-52 194.5t-141.5 141.5t-194.5 52zM512 -24q-88 0 -162.5 43.5t-118 118t-43.5 162.5t43.5 162.5t118 118t162.5 43.5t162.5 -43.5t118 -118
t43.5 -162.5t-43.5 -162.5t-118 -118t-162.5 -43.5zM613 249v170q0 52 4 87h-70q-14 -22 -43 -57l-122 -150q-23 -28 -42 -48v-63q24 2 65 2h143v-36q0 -36 -4 -60h74q-5 25 -5 59v37h19q30 -1 52 -4v66q-27 -3 -52 -3h-19zM549 355v-107h-132l99 123q22 27 35 47
q-2 -27 -2 -63z" />
    <glyph glyph-name="buzou5" unicode="&#xe646;" 
d="M512 688q-105 0 -194.5 -52t-141.5 -141.5t-52 -194.5t52 -194.5t141.5 -141.5t194.5 -52t194.5 52t141.5 141.5t52 194.5t-52 194.5t-141.5 141.5t-194.5 52zM512 -24q-88 0 -162.5 43.5t-118 118t-43.5 162.5t43.5 162.5t118 118t162.5 43.5t162.5 -43.5t118 -118
t43.5 -162.5t-43.5 -162.5t-118 -118t-162.5 -43.5zM528 371q-52 0 -89 -32q2 16 3 22l8 91h122q41 0 72 -4v65q-27 -4 -72 -4h-128q-31 0 -55 1q0 -24 -2 -53l-12 -128q-1 -12 -6 -54l64 -6q6 13 16 23q24 24 64 24q37 0 59 -22.5t22 -60.5q0 -39 -23 -62.5t-62 -23.5
q-42 0 -63 27q-10 11 -16 30l-71 -15q14 -37 32 -57q42 -45 118 -45q73 0 114.5 39.5t41.5 108.5q0 61 -36 97q-38 39 -101 39z" />
    <glyph glyph-name="bianji" unicode="&#xe606;" 
d="M378 289q0 -1 -1 -2l-35 -130q-4 -12 5 -21q7 -7 16 -7q3 0 6 1l130 35v0q3 0 4 2l348 345q16 16 16 40q0 27 -21 47l-32 33q-21 20 -48 20q-24 0 -40 -16l-347 -346v-0.5t-1 -0.5zM817 546l-35 -34l-56 56l34 34q4 4 11 3.5t11 -5.5l33 -32q5 -6 5 -13q0 -5 -3 -9z
M440 284l251 249l56 -56l-250 -249l-57 56v0zM395 183l18 66l48 -48l-66 -18v0zM839 409q-10 0 -17 -7t-7 -17v-322q0 -12 -9 -21t-22 -9h-548q-13 0 -22 9t-9 21v526q0 13 9 21.5t22 8.5h353q10 0 17 7t7 17t-7 17t-17 7h-357q-31 0 -53 -22t-22 -53v-532q0 -31 22 -53
t53 -22h556q31 0 53 22t22 53v325q0 10 -7 17t-17 7v0z" />
    <glyph glyph-name="daoru1" unicode="&#xe61b;" 
d="M486 70l-51 52l-119 -119v85q0 37 10 68.5t27 53t38.5 38.5t45.5 27t47.5 17.5t45.5 10.5t38.5 4.5t26.5 0.5h10v68q-61 0 -111.5 -10t-85.5 -26.5t-63 -38t-44 -45.5t-27.5 -48t-16 -45.5t-7 -38.5t-2.5 -26l1 -10v-85l-119 119l-51 -52l203 -203h1v0l47 47l4 4v0z
M511.5 783q-98.5 0 -188 -38t-154.5 -103t-103 -154.5t-38 -187.5q0 -27 4 -61l64 59v0.5v1.5q0 113 55.5 208.5t151 151.5t208.5 56t209 -56t151.5 -151.5t55.5 -208.5t-55.5 -209t-151.5 -151.5t-209 -55.5h-1.5h-2.5l-69 -62q40 -6 73 -6q99 0 188.5 38.5t154 103
t103 154t38.5 188t-38.5 188t-103 154.5t-154 103t-188 38z" />
    <glyph glyph-name="tishi" unicode="&#xe634;" 
d="M838 567q-13 9 -49 29q-10 5 -27 15t-22 13q-57 33 -98 57q-42 23 -49 28q-25 15 -62 15h-4q-33 0 -61 -15q-7 -6 -23.5 -15.5t-24.5 -14.5q-17 -9 -49.5 -27.5t-49.5 -27.5q-8 -5 -24.5 -15t-24.5 -15q-41 -23 -48 -27q-22 -15 -39 -42.5t-17 -56.5v-286
q0 -30 17.5 -58.5t38.5 -40.5q17 -12 52.5 -32t44.5 -25l99 -58q42 -23 48 -27q28 -18 61 -18h11q8 0 18.5 2.5t19 6t20 9.5t17.5 9.5l18 10.5t14 9q18 11 52.5 30.5t44.5 25.5q81 44 97 55q21 15 38.5 42.5t17.5 56.5v289q0 30 -18 57t-39 41v0zM850 197q0 -25 -15.5 -49
t-33.5 -36q-24 -16 -85 -50q-11 -7 -40 -23t-45 -26l-12 -7.5t-16 -9.5t-15 -8t-18 -8.5t-16.5 -5t-17.5 -2.5h-9q-25 0 -52 15q-33 19 -43 26q-5 3 -37.5 21t-49.5 28q-61 34 -85 50q-18 12 -33.5 36.5t-15.5 50.5v251q0 26 15 50t34 37q7 4 21.5 12t21.5 12q6 4 13 8.5
t15.5 9.5t13.5 8q59 32 87 49q7 4 20.5 12t20.5 12q22 16 54 16h4q33 0 55 -14q28 -17 42 -24q14 -9 43 -25.5t43 -25.5q28 -17 44 -24q26 -15 41 -26q19 -11 35 -36t16 -49v-255zM605 468q0 -50 -23 -150.5t-49 -100.5t-49 100.5t-23 150.5q0 33 21 56.5t51 23.5t51 -23.5
t21 -56.5zM533 130zM485 130q0 20 14 34t34 14t34 -14t14 -34t-14 -34t-34 -14t-34 14t-14 34z" />
    <glyph glyph-name="chenggong" unicode="&#xe635;" 
d="M838 574q-14 10 -52 31q-10 5 -28 16t-23 13q-15 9 -34.5 20.5t-36 21t-34.5 19.5q-44 25 -52 30q-26 16 -66 16h-3q-36 0 -65 -16q-8 -6 -25.5 -16t-25.5 -16q-18 -10 -53 -29t-52 -30q-9 -5 -26.5 -15t-25.5 -16q-44 -24 -51 -29q-23 -16 -41 -45t-18 -60v-304
q0 -31 18 -61t41 -44q18 -12 55.5 -33t47.5 -27l105 -61q44 -25 51 -30q30 -18 65 -18h11q9 0 20 3t20 6t21.5 9.5t18.5 10.5t18.5 11.5t15.5 9.5q19 11 55.5 31.5t47.5 27.5q85 47 103 58q22 16 40.5 45.5t18.5 59.5v308q0 31 -19 60t-42 43v0zM851 182q0 -27 -16 -52.5
t-36 -37.5q-25 -17 -90 -54q-12 -7 -43 -24t-47 -27q-1 -1 -13 -8.5t-16.5 -10t-16.5 -9t-19.5 -9t-17.5 -5t-18 -2.5h-9q-27 0 -56 16q-35 20 -46 28q-4 2 -38.5 21t-53.5 30q-65 37 -90 54q-20 12 -35.5 38t-15.5 54v266q0 27 15.5 53t35.5 39q7 5 23 13.5t23 12.5
q6 4 13.5 8.5t16.5 10.5t14 9q63 33 92 51q8 5 22.5 13t21.5 13q24 17 58 17h3q36 0 59 -15q30 -18 44 -26q16 -9 46.5 -26.5t45.5 -26.5q30 -19 46 -26q28 -16 45 -28q19 -12 36 -38t17 -52v-270zM516 167l216 216q13 12 4 20l-17 17q-8 9 -20 -4l-210 -210l-125 125
q-8 8 -17 0l-16 -17q-9 -8 0 -16l150 -151q8 -8 17 0l16 17q2 1 2 3z" />
    <glyph glyph-name="wangzhanguanli" unicode="&#xe63c;" 
d="M815 -161v0q-14 0 -22 10q-26 28 -49 28t-48 -28q-9 -9 -22 -9q-6 0 -11 2l-1 1l-57 31v1q-8 5 -10.5 14.5t1.5 18.5l1 3t2.5 9t1.5 11q0 24 -17.5 42t-42.5 18h-2h-1q-15 0 -19 21q-5 27 -5 46t5 45q4 22 20 21h2q25 0 42.5 18t17.5 43q0 12 -5 23q-4 8 -1.5 17.5
t10.5 15.5v0l60 33h1q5 2 11 2q13 0 22 -9q25 -26 47 -26t48 26q8 9 21 9q6 0 12 -3v0l58 -32h1q7 -6 10 -15.5t-1 -17.5q-6 -17 -6 -23q0 -25 18 -42.5t43 -17.5h2q16 0 20 -22q5 -26 5 -45q0 -13 -5 -46q-4 -22 -20 -21h-2q-25 0 -43 -17.5t-18 -42.5q0 -6 6 -23
q4 -9 1 -18.5t-10 -14.5l-1 -1l-59 -32v0q-6 -3 -11 -3v0v0zM813 -133h2v0l55 30q-8 17 -8 34q0 35 24 60t59 27q4 24 4 40t-4 39q-35 2 -59 27.5t-24 60.5q0 16 8 33l-54 30h-1h-2q-9 -9 -20 -17q-25 -18 -46.5 -18t-47.5 18q-10 8 -20 17q-1 1 -2 1v0l-56 -31q7 -17 7 -33
q0 -35 -24 -60.5t-58 -27.5q-5 -23 -5 -39q0 -18 5 -40q34 -2 58 -27t24 -60q0 -17 -7 -34l53 -30v0q1 0 2 1q8 8 20 18q26 18 48 18q23 0 48 -19q12 -9 21 -18v0v0zM744 -22q-33 0 -56.5 23.5t-23.5 56.5t23.5 56.5t56.5 23.5t56.5 -23.5t23.5 -56.5t-23.5 -56.5
t-56.5 -23.5v0v0zM744 111q-22 0 -37.5 -15.5t-15.5 -37.5t15.5 -37.5t37.5 -15.5t37.5 15.5t15.5 37.5t-15.5 37.5t-37.5 15.5v0v0zM146 234q-14 0 -23.5 9.5t-9.5 23.5v393q0 14 9.5 23.5t23.5 9.5h721q13 0 22.5 -9.5t9.5 -23.5v-393v-1v-1q29 -22 50 -51q16 24 16 53
v393q0 41 -29 69.5t-69 28.5h-721q-41 0 -70 -28.5t-29 -69.5v-393q0 -41 29 -70t70 -29h369q16 36 42 66h-411v0zM495 103h-153q-13 0 -22.5 -9.5t-9.5 -23t9.5 -23.5t22.5 -10h152q-2 15 -2 28q0 17 3 38v0zM500 658q-74 0 -127 -53t-53 -127.5t53 -127.5t127.5 -53
t127.5 53t53 127.5t-53 127.5t-128 53v0zM620 551v0.5v0.5v2h0.5h0.5l3 -3h1l1 1v0.5t1 0.5v-1l5 -3v-1l-1 -1l-2 2h-0.5h-0.5l-1 -0.5t-1.5 -1t-1.5 -0.5h-2h-1l-1 2v0v1v1v0zM619 535v1v0v0v0l1 -1l2 -3h-3h-1l1 1q1 0 1 0.5t-1 1.5v0zM584 578v0q2 0 1 1v3l1 2l1 3v0
l2 -1h1l1 -2v0l0.5 -0.5l0.5 -0.5v0l1 -3q-1 0 -4 -1h-0.5h-0.5v0l-4 -1v-1h-1l1 1v0zM462 622v0v0v-1v1v0v0zM452 608q1 -1 2 -1l-2 -2v0l-1 -1h-3l4 4v0zM445 597v0l-1 1q1 -1 4 0h1l-1 -1q-1 -1 5 -5v0l-5 -2v0l1 1q1 1 0 2l-4 4v0zM442 602v0l4 1h-1v-1l-2 -2v-2h1l-2 1
h-1l1 3v0zM414 589v1v0l5 4q2 0 5 2l4 1q1 0 1 1v0l1 1h2v-1q0 -1 1 -1q1 -1 2 -1l1 1h1v0l-3 -3q0 -1 -0.5 -1.5l-0.5 -0.5l-3 -2h-1l-3 -5l-7 -3q-1 0 -1 -0.5v-0.5v0l-2 3l-1 4l-1 1v0v0zM347 465h-5v-1l8 -10h1h2l2 -1q0 -1 1 -1h1l1 7l1 4v0l1 -2v-5l0.5 -1.5l0.5 -1.5
v-1v-1l2 -3q1 -2 2 -1h2l1 1v-1q1 -5 2 -12v-3l-1 -2l-1 -6v-1v0l1 -4v0q0 -1 0.5 -1t0.5 -1v0v0v-0.5v-1.5l3 -6v0l6 -5l3 -4v-1v0q9 -12 12 -14l7 -4h1q1 0 4 -2l1 -1q7 -11 11 -17q3 -3 6 -8.5t6 -8.5q-35 18 -57.5 50t-25.5 71v0zM359 488q0 -1 1 -1h1h1q0 -3 1 -4t2 -1
q4 0 4 4l-1.5 1l-1.5 1h-2v-1l3 -1q0 -1 3 -2h1h4h9v0h-2h-2l-1 -0.5t-1 -1.5q0 1 -2 1v0l-4 1h-2v0h-0.5t-2.5 -2v-1.5t1 -1.5l2 -1l1 -1v0h1v0h1l2 1h2h2.5t1.5 1q3 0 3 1v1v-1l3 -1h-1h-1l-1 1h-1h1v0h7v0h1h5v0l0.5 -0.5l0.5 -0.5v0v0l0.5 -0.5l0.5 -0.5h1h2h2v-1
q0 -1 1 -1v0l-1 -1v-3l-1 -1l1 -1v-1v0v0v-1.5v-2.5q0 -1 1 -1v-1v-1v0l-1 -1v-1v-1v0v-2v0l1 -1l-2 2v0l-5 2h-1v0v-1h-1l-6 1l-3 4q0 1 -1 1v0h-2l-1 -1v0q-1 0 -1 0.5t-1 0.5h-1l-6 -4h-1v-1l-2 -4l-2 1l-0.5 0.5l-0.5 0.5v2v0h-1l-4 -2v2l1 11v1l-0.5 0.5l-0.5 0.5l-3 3
l-1 1v0v0h2h2l1 1v0v3l-1 10h-1h-1l-1 -1l-0.5 -0.5t-0.5 -1.5v0zM592 406l-2 -9l-3 -3l-2 -4h-1v-0.5v-0.5h-0.5h-0.5q0 -1 -3 -3t-4 -2q0 -1 -2 -1h-2v-1l5 -3q-1 -3 -1.5 -9t-1.5 -8h1v-1l1 -1l-1 -3l-0.5 -1l-1.5 -3l-1 -1q-1 -1 -2 -3l-1 -1v-1.5t0.5 -0.5h1.5
q-33 -18 -71 -18q-20 0 -40 6l-1 1l-1 1v0v2v0l8 1l2 1h5v1l-7 3l-1.5 0.5t-2 0.5h-1.5h-1l-1 1h1v0v1l1 2v0v1l1 3h5h3l3 1v0v2v0l-2 1h-3l-5 8q1 0 4.5 2t4.5 3l1 1v2q0 8 1 10l-0.5 0.5l-0.5 0.5l-2 8l1 1l1 1v0l1 1h-1h-1l1 4v0l5 5v1h1v0.5v0.5l-1 7l-1 1l-14 7v0
l-11 2l-4 1l-4 3l-1 1h-1h1q0 1 -1 2v0v0q0 1 -1 1v0l-3 2l-4 6l-1 1v0q0 1 -1 1l-7 3l-2 2h-1l-4 -1l-5 5v0h1q1 1 1 2v2l-3 2h-2q-2 0 -2 1v0l1 1l1 1h-2v0v0q1 1 0 2q2 1 2 2v2l-1 2l1 1q0 1 -1 4v0v1q1 1 1 2v0q0 1 -1 3h-1v1v0v-7l-0.5 -2t-0.5 -4.5v-2.5h-1v2.5
t-0.5 5.5t-1 3t-2 2.5t-2.5 2.5l-0.5 1.5t-1 1.5t-0.5 0.5t-0.5 0.5h-0.5h-1l-1 1l-1 1q-1 0 -5 0.5t-5 0.5q-9 0 -9 -1v0l4 2l2 1v-2l1 -2v-3v-6.5v-3.5l1 -8h-1v3.5t-0.5 6.5l-0.5 3v2v4v3l-3 1l-1.5 1l-1.5 1v-25h7v0q1 0 2 14v4.5t-1 5.5v1q-1 4 -2 3l-0.5 0.5t-1 0.5
t-0.5 -0.5v-0.5v0q-1 0 -2.5 1.5l-2.5 2.5q-1 0 -3.5 1t-3.5 1q0 1 -0.5 0l-0.5 -1v0l-4 1h-1v1q-1 -1 -3 -5v1h-0.5h-0.5l-5 6q0 2 0.5 3l1 2t1 7t1.5 17v0l3 -10l1 -1l1 -2q2 1 2 2l4 -3v-11v-2q2 -1 3 -1t1 1h1v0v-3q1 -3 2 -3h2v0q1 0 2 3h-1v-1l-2 -2h-1l1 8q0 2 0.5 7
t0.5 6l4 12v0v-2l1 -1l4 1q1 1 3.5 2t3.5 2v0q1 0 1 0.5v0.5q1 3 1 4v0q1 -1 2 0l6 6l1 1l1 1l6 1h1l2 2v2v5l1 8h1q1 0 1 -3v-3v-1v-1l5 1v-2v-2h1q0 -1 1 -1q1 1 4 2t4 1l3 1v0l1 4v4h2v0l0.5 -1.5t1.5 -0.5l1 -1v0q0 1 -1 1l1 2l-0.5 1t-1.5 1t-5 -5l-1 1v1.5v0.5h1l2 2
q1 1 1 2l-1 -3v0v-1h6v2v0v0v0l-1 -1v-1.5t5 -1.5v1h1l1 1h1h1h1h2v0h3h0.5h0.5v0.5v0.5q0 1 -1 1l1 1v1t-2 1l3 2q1 1 0 2q0 1 -1 1l2 2v0v2l-1 1h-3v1l0.5 1l0.5 1v1l-4 1h-3l-7 1v0l7 1q0 4 4 6v1h1v1h1q1 1 2 3h0.5t0.5 -0.5v-0.5h1q1 0 5 4h0.5t6.5 3l1 1v1l-3 4l2 2
q0 1 -3 5v1h-1v0l2 2v0h1q1 0 2 3t2 3l0.5 2l0.5 2v0l1 -2v-1l2 -2h0.5h0.5l-2 -1l-1.5 -0.5l-1.5 -0.5v0h1.5t1.5 -0.5t-1 -0.5h-1l-0.5 -0.5l-0.5 -0.5v-1l2 2l2 3l1.5 2.5l1.5 2.5h4l1 -6v-3l-1 -4v-2v-1v-2l1 -1v-7v-3q0 -4 1 -4h-3v2q-1 4 -3 2l-1 2v1v0v1v-2v0v-1v0v0
h-1v0q-1 -1 -1 -1.5v-0.5l2 -6v-1l1 1v1v1l1 1h1l1 -4v0v-2l2 -1l3 1h1l2 2l2.5 2.5l3.5 3.5l4 2h1v-1l1 -3h1v1l3 3h4l3 -4v0l1 4q1 1 4.5 3t4.5 3v0.5v0.5q1 0 1 1l1 1q1 2 1 3v0.5v0.5v1l1 5v1v1l-0.5 1t-0.5 2v0h1h1l2 1v1q12 -3 22 -7q1 0 3 -1q8 -3 15 -7v0h-2
q0 -1 -1 -1v-1v-1h-1l2 -1l1 -1h2v-1h-3l-2 -6v0v0l-1 -1v0l-3 -4q-1 0 -1 -1l5 -7v-1v3l1 3l1.5 2.5l1.5 2.5h1l-1 -9l0.5 -2l0.5 -2l1 -3v-0.5v-1.5l-2 -1v0l-1 -1l-1 -1h-1l-1 -1v-0.5v-0.5v0l2 -1l3 1v1l-1 0.5t-3.5 2.5t-6.5 5l6 2h2h3v1h-3.5h-3.5l-2 1q-3 0 -5 1
l-2 5q-2 4 -3 4h-2q-2 0 -7 -4.5t-5 -8.5v-1l1 2t2.5 4t1.5 1.5t1 1.5t2.5 3.5l1.5 1.5v0l-0.5 -3.5l-0.5 -3.5v-2l-1 -2v-1t-0.5 -1.5t-0.5 -1v-0.5v0h-0.5t-0.5 -0.5v-0.5v0q-1 0 -2 -2q-1 0 -1 -1l1 -2l1 -1h-1v-1v-2v-2h2l4 1v0l4 1v0v0v0v-1v0v0l-1 -1v-1q-1 -2 0 -3
t2 -1h1v0h17v-1v0q0 -1 -2.5 -1t-4.5 -0.5l-2 -0.5h-1l-2 1l-2 2h1l8 -5l5 -3v-1l-5 3q-1 0 -2.5 1.5t-4 3t-4.5 1.5h-1l-0.5 -2.5t-1.5 -1.5q-1 0 -1 -2v-1l-1 -1l-1 -1v-1l-1 -1h-1v-1q-1 0 -1 -1q1 -1 -1 -3t-2 -3l-5 -5v-1h2t2 -0.5t2 -0.5h1l2 -1l1 -4q1 -1 3 -1l3 1
l1 -2l-9 -7v-1v0l-2 -6l-6 -4l-2 -2h-1q-1 -2 -5 -9l-1 -1.5l-1 -1.5l-4 -8v0v-2t1 -1v0l1 -2l1 -7l-5 -8q0 -1 1 -2l1 -2v-1v-1v-1v0q0 -1 1 -1l1 -2l2 -3l4 -6h1l3 -2l2 -3v0l1 -1v0v0l1 -1l6 -3l2 -6v-1l1 -2v0h3h5h7v-1v0l7 1v0l1 4l0.5 1.5l0.5 1.5l2 3h3l2 1l1 -4
q1 -1 2 -1h5l2 -2v-1l-4 -8v-1l4 -9l7 -2l6 -1v-1h-3h-3l-2 -1h-1l-0.5 -0.5l-0.5 -0.5l-1 -1l-1 -3v0zM596 531q0 1 -1 1l-1 1l-2 1q-1 1 -1.5 1h-0.5l-2 -1l-13 -1h-1l-8 -3h-3v0l3 1v0h1v0l3 3v0l2 2v1l-1 3v1l1 1h1v0h1l1 1q1 0 1 1v2l1 1l4 -1h1l1 2h1l-0.5 -0.5
l-0.5 -0.5v0v-2l1 -1v0v-1v-1v-1l0.5 -1t0.5 -2t2 -1v0h1l2 1q1 0 1 1t-1 4q0 1 -1 1v1v1l3 -3v0l6 -3v-1v-1l-3 1l-1 -0.5t-1 -1.5v-0.5v-1v-0.5q1 -1 4 -3l1 -1v0q-2 0 -2 -2v2v0zM632 521q-1 0 -1 -1l-1 -1l-6 2v0h-3v1h-1q-2 1 -5 1v-1h-1l-1 -1q-1 0 -1 -1v-2l-6 3
l-1 1l-6 1l-2 1v1q0 2 -1 4q0 -1 0.5 -1.5l0.5 -0.5v-1v0q1 -1 2 -1v0q1 0 3 3v0v0.5v1.5q1 0 1 1v3q1 0 1 1l1 2v2v0v0q1 0 1 1v-1l1 -1v0h1l2 -3h0.5h0.5v0l1 -2l1 -1v-1h1v0h2v-1l1 -2q0 -1 6 -2v0v0q2 0 2 4v-1h2l2 1h1v0v-1v-2q1 0 3 -1v0v0q1 -1 1 0h1l1 1v-2v-5l-4 1
v0zM587 431q-1 2 -4 2v0q-3 -1 -4 -4q-1 -2 1 -3q1 -1 3 -1q3 0 4 3q1 2 0 3v0zM528 592v0q1 0 8 4q1 0 1 2v0.5v0.5h-1v1l-3 2q-1 1 -2 1l-5 -1h-2q0 1 -0.5 1t-3.5 -1q-1 0 -1.5 -1t0.5 -2t2 -1l-1 -1q0 -1 0.5 -1.5t7.5 -3.5v0v0zM528 592z" />
    <glyph glyph-name="chenggong1" unicode="&#xe636;" 
d="M511 770q-104 0 -192.5 -51.5t-140 -139.5t-51.5 -192t51.5 -192.5t140 -140t192.5 -51.5t192 51.5t139.5 140t51.5 192.5t-51.5 192t-139.5 139.5t-192 51.5v0v0v0v0zM749 493l-286 -286q-5 -5 -12.5 -5t-12.5 5l-38 38v0l-124 124q-5 5 -5 12.5t5 12.5l38 37q5 5 12 5
t12 -5l112 -111l236 236q6 5 13 5t12 -5l38 -38q5 -5 5 -12.5t-5 -12.5v0v0v0v0z" />
    <glyph glyph-name="shijian" unicode="&#xe607;" 
d="M510 -23q-82 0 -156 31t-132 89t-88.5 132t-30.5 156t30.5 156t88.5 132t132.5 89t156 31t156 -31t131.5 -89q79 -78 106.5 -183t0 -210t-106.5 -183q-57 -58 -131.5 -89t-156.5 -31zM510 745q-72 0 -137.5 -27.5t-116.5 -78t-78.5 -116.5t-27.5 -138t27.5 -138
t78.5 -116.5t116.5 -78t137.5 -27.5t138 27.5t117 78.5q69 69 93.5 161.5t0 185t-93.5 162.5q-51 50 -117 77.5t-138 27.5zM676 224q-7 0 -15 4l-141 85l-2 2q-10 5 -12 8l-1 1v0q-25 14 -25 27v239q0 13 9.5 22.5t22 9.5t22 -9.5t9.5 -22.5v-225l142 -82v0l1 -1
q12 -7 16 -19q5 -13 -1 -24q-9 -15 -25 -15v0z" />
    <glyph glyph-name="zanting1" unicode="&#xe682;" 
d="M512 894q-104 0 -198.5 -40.5t-163 -108.5t-109 -163t-40.5 -199t40.5 -198.5t109 -163t163 -109t198.5 -40.5t198.5 40.5t163 109t109 163t40.5 198.5t-40.5 199t-109 163t-163 108.5t-198.5 40.5zM512 -77q-94 0 -179 36.5t-146.5 98t-98 147t-36.5 179t36.5 178.5
t98 146.5t146.5 98t179 36.5t179 -36.5t146.5 -98t98 -146.5t36.5 -178.5t-36.5 -179t-98 -147t-146.5 -98t-179 -36.5zM369 536h101v-305h-101v305zM554 536h101v-305h-101v305z" />
    <glyph glyph-name="xiaoxizhongxin" unicode="&#xe608;" 
d="M750 262v201q0 69 -34.5 123t-93.5 84q-12 46 -47.5 76t-80.5 30q-44 0 -78 -29t-45 -75q-62 -29 -98 -84t-36 -125v-200q-35 -8 -56.5 -34t-21.5 -61v-34q0 -22 16 -37.5t39 -15.5h214q-3 -9 -3 -18q0 -29 20.5 -49t48.5 -20t48 20t20 49q0 9 -2 18h214q23 0 39 15.5
t16 37.5v34q0 35 -22 60.5t-57 33.5zM493 751q54 0 95 -68q-48 12 -95 12q-43 0 -91 -11q38 67 91 67zM772 138l-556 -4v34q0 18 13.5 29.5t36.5 11.5h28v254q0 79 56 129.5t144 50.5t143.5 -50.5t55.5 -129.5v-233h-276q-12 0 -15 -3.5t-3 -15t3 -15t15 -3.5h351
q4 -7 4 -25v-30z" />
    <glyph glyph-name="shanchuzhanghao" unicode="&#xe609;" 
d="M761 141zM512 778q-107 0 -198 -52.5t-143.5 -143.5t-52.5 -198t52.5 -197.5t143.5 -143.5t198 -53t197.5 53t143.5 143.5t53 197.5t-53 198t-143.5 143.5t-197.5 52.5zM511.5 45q-92.5 0 -170.5 45t-123.5 123.5t-45.5 170.5t45.5 170.5t123.5 124t170.5 45.5
t170.5 -45.5t123.5 -124t45.5 -170.5t-45.5 -170.5t-123.5 -123.5t-170.5 -45zM728 186q-23 43 -60 74.5t-83 45.5q33 19 53 52.5t20 73.5q0 59 -42 101t-101.5 42t-102 -42t-42.5 -101q0 -40 19.5 -73t51.5 -52q-46 -13 -83.5 -43.5t-60.5 -73.5q-2 -1 -2 -3l-0.5 -0.5
l-0.5 -0.5v0q-1 -3 -1 -6q0 -8 5.5 -13.5t13.5 -5.5t14 6l1 1v0q2 3 3 6q27 48 75.5 77t105.5 29q60 0 110 -31.5t76 -83.5v0q6 -9 16 -9q8 0 13.5 5.5t5.5 12.5t-4 12zM404 431.5q0 45.5 32 78t78 32.5t78.5 -32.5t32.5 -78t-32.5 -78t-78.5 -32.5t-78 32.5t-32 78z" />
    <glyph glyph-name="zhanqunguanli" unicode="&#xe60a;" 
d="M63 2v584v45v45q0 37 26.5 63.5t63.5 26.5h718q37 0 63.5 -26.5t26.5 -63.5v-45v-45v-584h-898v0zM198 721q-19 0 -32 -13.5t-13 -32t13 -31.5t31.5 -13t32 13t13.5 31.5t-13.5 32t-31.5 13.5v0zM332 721q-18 0 -31.5 -13.5t-13.5 -32t13.5 -31.5t32 -13t31.5 13t13 31.5
t-13 32t-32 13.5v0zM467 721q-18 0 -31.5 -13.5t-13.5 -32t13.5 -31.5t32 -13t31.5 13t13 31.5t-13 32t-32 13.5v0zM916 586h-808v-539h808v539v0zM287 137h-89v135h89v-135v0zM467 137h-90v225h90v-225v0zM647 137h-90v359h90v-359v0zM826 137h-89v225h89v-225v0zM826 137z
" />
    <glyph glyph-name="mobile" unicode="&#xe621;" 
d="M510.5 825q-89.5 0 -171 -35t-140.5 -94t-94 -140.5t-35 -171t35 -171t94 -140.5t140.5 -94t171 -35t171 35t140.5 94t93.5 140.5t34.5 171t-34.5 171t-93.5 140.5t-140.5 94t-171 35zM510.5 -7q-106.5 0 -196.5 52.5t-142.5 142.5t-52.5 196.5t52.5 196.5t142.5 142.5
t196.5 52.5t196.5 -52.5t142.5 -142.5t52.5 -196.5t-52.5 -196.5t-142.5 -142.5t-196.5 -52.5zM700 173q0 -16 -6 -29t-16.5 -23t-25 -16t-31.5 -6h-217q-17 0 -31.5 6t-25 16t-16.5 23t-6 29v423q0 16 6 29.5t16.5 23.5t25 15.5t31.5 5.5h217q17 0 31.5 -5.5t25 -15.5
t16.5 -23.5t6 -29.5v-423zM651 567h-277v-364h277v364zM512 185q-13 0 -22.5 -9t-9.5 -22t9.5 -22.5t22.5 -9.5q14 0 23 9.5t9 22.5t-9 22t-23 9v0zM561 619q0 5 -3 7.5t-7 2.5h-77q-3 0 -6.5 -2.5t-3.5 -7.5t3 -8t7 -3h77q4 0 7 3t3 8v0zM561 619z" />
    <glyph glyph-name="11" unicode="&#xe60b;" 
d="M515 663q-126 0 -216 -88.5t-90 -214.5q0 -86 46 -158.5t122 -111.5v-6q0 -23 16 -38.5t41 -15.5h168q23 0 40 16t17 38v6q76 39 122 111.5t46 158.5q-2 126 -93 214.5t-219 88.5zM629 138q-30 -15 -30 -48v-6h-168v6q0 33 -30 48q-63 32 -100.5 91t-37.5 128
q0 103 74 176t178 73t178 -73t74 -176q0 -67 -37.5 -126t-100.5 -93zM890 669q20 19 0 39q-9 9 -20.5 9t-18.5 -9l-39 -39q-20 -19 0 -39q9 -9 20.5 -9t18.5 9zM230 675l-42 39q-9 9 -21 9t-21 -9t-9 -20.5t9 -18.5l42 -39q9 -9 21 -9t21 9q9 7 9 18.5t-9 20.5zM935 420h-57
q-11 0 -19 -8t-8 -19t8 -19t19 -8h57q11 0 19 8t8 19t-8 19t-19 8zM515 723q11 0 19 8t8 19v57q0 11 -8 19t-19 8t-19 -8t-8 -19v-54q0 -13 8 -21.5t19 -8.5zM161 420h-63q-11 0 -19 -8t-8 -19v0q0 -11 8 -19t19 -8h63q11 0 19 8t8 19v0q0 11 -8 19t-19 8zM572 -3h-111
q-11 0 -19 -8t-8 -19t8 -19t19 -8h111q11 0 19 8t8 19t-8 19t-19 8zM629 453l-123 -162l-87 69q-9 7 -20.5 5t-18.5 -11t-5 -20.5t11 -18.5l111 -84q12 -6 18 -6h3q12 0 18 12l141 186q7 9 5 20.5t-11 18.5q-27 11 -42 -9z" />
    <glyph glyph-name="weiwangzhan" unicode="&#xe60c;" 
d="M880 520q-6 23 -14 43q-29 69 -92 111.5t-141 42.5q-105 0 -179 -74t-74 -179t74 -179t179 -74t179 74t74 179q0 28 -6 56v0zM427 464q0 38 13 73q3 -1 11 -4t11.5 -6.5t3.5 -8.5q0 -20 1 -31.5t4.5 -25.5t12 -21t22.5 -7q2 0 7 -3t13 -10.5t12 -18.5q2 -4 6 -4t12 2
t14 2q3 0 3 -3.5t-1.5 -13.5t-1.5 -20q0 -12 14.5 -28t28.5 -26l14 -11q0 -24 2 -41q-84 1 -143 61.5t-59 144.5v0zM683 264q5 22 7.5 30t8 18.5t13.5 16.5q17 15 8.5 28.5t-24.5 11.5q-7 -1 -9.5 8.5t-8.5 10.5q-7 0 -24 15t-26 19l-13 8.5t-22 8.5q-4 0 -9 -1t-9 -2
t-7.5 -2t-6 0t-2.5 3q0 10 -3 57q0 2 -1 3q0 1 1 0q5 -1 14 -1q5 0 7.5 9.5t7.5 10.5q4 0 20 -3.5t19 -1.5q1 1 6 -7q20 -32 23 -34q8 -7 11 9q1 6 1 17q0 2 -1 9t-1 13t2 9q4 8 10.5 18.5t10 17t7 12.5t5 10t1.5 5t-5.5 1.5t-13.5 0t-14 -2.5q-3 -1 -2.5 -5.5t-3.5 -4.5
q-29 -7 -41 7q-4 6 0 11q2 4 20.5 10t20.5 19q2 18 4 42q54 -8 97.5 -42.5t63.5 -85.5q-83 -60 -29 -107q14 -13 31 -39q-17 -48 -55.5 -82.5t-88.5 -47.5v0zM683 264zM754 207v-22h-549v557h549v-23q38 -16 69 -41v52q0 43 -33.5 73.5t-80.5 30.5h-458q-48 0 -81.5 -30.5
t-33.5 -73.5v-686q0 -43 33.5 -73.5t81.5 -30.5h458q47 0 80.5 30.5t33.5 73.5v203q-31 -25 -69 -40zM479.5 -8q-28.5 0 -49 19t-20.5 45.5t20.5 45t49 18.5t49 -18.5t20.5 -45t-20.5 -45.5t-49 -19z" />
    <glyph glyph-name="xuanze" unicode="&#xe63e;" 
d="M751 499l-302 -302q-11 -10 -23 2l-20 20v0l-136 135q-5 5 -5 12.5t5 12.5l37 36q5 5 12.5 5t12.5 -5l106 -106l252 251q11 11 23 -2l37 -36q12 -13 1 -23v0zM751 499zM510 830q-91 0 -173.5 -35.5t-142.5 -95t-95.5 -142t-35.5 -173t35.5 -173t95.5 -142t142.5 -94.5
t173.5 -35t174 35t142.5 94.5t95 142t35.5 173t-35.5 173t-95 142t-142.5 95t-174 35.5v0v0zM510 -5q-106 0 -196 52.5t-142.5 142t-52.5 195t52.5 195.5t142.5 142t196 52t196.5 -52t142.5 -142t52 -195.5t-52 -195t-142.5 -142t-196.5 -52.5v0v0zM510 -5z" />
    <glyph glyph-name="qq" unicode="&#xe622;" 
d="M829 702q62 -62 96.5 -143.5t34.5 -171.5q0 -92 -34.5 -173.5t-96.5 -143.5t-143.5 -97t-173.5 -35q-91 0 -172.5 35t-144.5 97q-62 62 -96.5 143.5t-34.5 173.5q0 90 34.5 171.5t96.5 143.5q63 63 144.5 97.5t172.5 34.5q92 0 173.5 -34.5t143.5 -97.5v0zM793 106
q54 55 85 127.5t30 153.5q0 80 -30.5 152t-84.5 127q-55 55 -127.5 85t-153.5 30t-153 -30t-127 -85t-86 -127t-31 -152q0 -81 31 -153.5t86 -127.5t127 -85t153 -30t153.5 30t127.5 85v0zM724 404q2 39 -1 43q-3 9 -7.5 13t-7.5 4.5t-3 2.5q0 87 -56.5 148.5t-136 61.5
t-135.5 -61t-56 -148q0 -4 -5.5 -7t-8.5 -13q-2 -6 -1.5 -8t1 -12t0.5 -22q0 -3 -9 -15.5t-21.5 -32t-17.5 -36.5q-25 -71 5 -93q14 -10 35 31q7 11 8 11q2 -9 4 -13q11 -30 34 -58q1 -2 -4 -5.5t-14.5 -11.5t-15.5 -18q-12 -21 7.5 -45t67.5 -24q25 0 45.5 3t32.5 8
t19.5 9.5t11 8l3.5 3.5h15q3 0 6.5 -0.5t6.5 0.5q1 0 7 -4t16 -9.5t22.5 -10.5t29.5 -7.5t34 -0.5q22 2 37.5 6t25 8t14.5 11t7.5 10t1 12t-2 11t-3.5 11q-2 6 -7 12t-10 10t-10 7l-7.5 4.5t-2.5 2.5q6 7 11 13.5t8 11t6 11.5t4 10.5t4 12t4 11.5q1 4 8 -8q21 -35 31 -36
q4 -1 7 2q5 5 9 14.5t5.5 30t-6.5 48.5q-7 26 -19 44t-19.5 26.5t-6.5 11.5v0zM724 404z" />
    <glyph glyph-name="shouru" unicode="&#xe61c;" 
d="M296 655.5q3 -5.5 8 -9.5t14 -14q11 -10 20 -20l25 -25h176q13 14 25 25q10 11 19 20q10 10 15 14q4 4 7.5 9.5t4.5 11.5t0 12t-6 11t-9.5 4.5t-8.5 -2.5q-6 -3 -12 -5q-7 -3 -18 -3q-10 0 -15.5 5t-10 11t-10.5 11t-16 5t-16 -5t-11.5 -11t-11 -11t-14.5 -5q-10 0 -16 5
t-11 11t-10.5 11t-15.5 5t-16 -5t-11 -11t-10.5 -11t-14.5 -5q-11 0 -18 3t-12 5t-9 2.5t-9 -4.5t-6.5 -11t0 -12t4.5 -11.5zM559 313v0v0zM711 298q-53 0 -90.5 19.5t-37.5 47.5v-26q0 -24 28 -43q26 -7 46 -19q26 -6 54 -6q53 0 90.5 19.5t37.5 48.5v27q0 -29 -37.5 -48.5
t-90.5 -19.5zM547 77q-53 0 -90.5 20t-37.5 48v-27q0 -28 37.5 -48t90.5 -20t90.5 20t37.5 48v27q0 -28 -37.5 -48t-90.5 -20zM583 386q0 -28 37.5 -48t90.5 -20t90.5 20t37.5 48t-37.5 48t-90.5 20t-90.5 -20t-37.5 -48zM559 313q0 5 -2 17q-2 20 -1.5 35.5t2.5 25.5l2 10
q3 18 15.5 32t30 22.5t30 13t24.5 7.5q-11 14 -23 26q-36 34 -80 59h-213q-45 -25 -80 -59q-15 -15 -29 -33t-25.5 -40t-18.5 -47.5t-7 -54.5q0 -49 15.5 -87.5t48 -65t82.5 -41.5q28 -8 62 -11v72q-1 13 0.5 23t3.5 13l2 4q8 22 27.5 38.5t39.5 24t44 11.5t34 4.5t16 0.5z
M387 378.5q0 4.5 3.5 8t8.5 3.5h43v21h-43q-5 0 -8.5 3.5t-3.5 8.5t3.5 8t8.5 3h38l-45 45q-8 8 0 15.5t16 -0.5l44 -44q1 1 2 1t2 -1l46 46q7 7 15 -0.5t0 -15.5l-45 -46h37q4 0 7.5 -3t3.5 -8t-3.5 -8.5t-7.5 -3.5h-44v-21h44q4 0 7.5 -3.5t3.5 -8t-3.5 -8t-7.5 -3.5h-44
v-27q0 -4 -3.5 -7.5t-8 -3.5t-8 3.5t-3.5 7.5v27h-43q-5 0 -8.5 3.5t-3.5 8zM711 156h-13v-1.5v-1.5q1 -4 1 -8v-16h12q53 0 90.5 20t37.5 48v27q0 -28 -37.5 -48t-90.5 -20zM711 203q-6 0 -13 1v-2v-2q1 -4 1 -8v-15q6 -1 12 -1q53 0 90.5 20t37.5 48v27q0 -28 -37.5 -48
t-90.5 -20zM711 223q53 0 90.5 20t37.5 48v27q0 -28 -37.5 -47.5t-90.5 -19.5q-13 0 -26 1q10 -13 13 -28q6 -1 13 -1zM547 125q-53 0 -90.5 19.5t-37.5 47.5v-27q0 -28 37.5 -47.5t90.5 -19.5t90.5 19.5t37.5 47.5v27q0 -28 -37.5 -47.5t-90.5 -19.5zM547 281
q-53 0 -90.5 -20t-37.5 -48t37.5 -48t90.5 -20t90.5 19.5t37.5 48t-37.5 48.5t-90.5 20z" />
    <glyph glyph-name="shouru1" unicode="&#xe61d;" 
d="M162 7v593h862v-593h-862zM970 546h-754v-485h754v485zM458 357q0 29 29 48t72 25v35h68v-36q55 -7 100 -36q-6 -11 -18 -26t-13 -17q-14 12 -43.5 23t-60.5 11q-67 0 -67 -26q0 -12 21 -19t50.5 -12t59.5 -12.5t50.5 -24.5t20.5 -43q0 -27 -28.5 -45.5t-71.5 -24.5v-36
h-68v36q-63 7 -99 34q2 3 13.5 18t15.5 23q13 -10 43 -20t60 -10q70 0 70 25q0 12 -21 19.5t-51 12.5t-60 12t-51 24t-21 42zM808 707h-754v-485h27v-53h-81v592h862v-108h-54v54z" />
    <glyph glyph-name="xiangshangjiantou" unicode="&#xe625;" 
d="M732 314l-192 192q-12 11 -28 11t-28 -11l-191 -192q-12 -11 -12 -27t11.5 -27.5t27.5 -11.5t27 11l165 165l165 -165q12 -11 28 -11t27.5 11.5t11.5 27.5t-12 27z" />
    <glyph glyph-name="aaaaaa" unicode="&#xe632;" 
d="M1002 220q0 19 -1 23q-14 42 -58.5 173t-68.5 202q-5 17 -22 17h-65v-42h51q23 -68 114 -337h-286q-14 0 -19 -6q-7 -6 -7 -20q-2 -44 -32 -78q-36 -40 -90 -42q-45 -3 -81 24q-23 16 -37 41t-15 53q-1 17 -8 23q-6 5 -19 5h-285q81 241 113 337h63v42h-62q-17 0 -22 -2
q-11 -2 -15 -15q-23 -68 -65.5 -193t-56.5 -168q-7 -20 -6 -29v-295q0 -21 7 -28q6 -6 27 -6h920q14 1 20 6q6 6 7 19q-1 11 -1 148v148zM960 -59h-896v273h279q6 -52 42 -91q40 -44 100 -53q62 -11 115 22q33 19 55 52t26 70h279v-273zM660 841h-1q-7 4 -14 2t-11 -8
l-10 -17q-4 -7 -2 -14.5t9 -10.5l1 -1q6 -4 13.5 -2t11.5 9l10 17q3 6 1.5 13.5t-8.5 11.5zM381 814l-10 18q-4 6 -11 8t-13 -2l-2 -1q-7 -3 -8.5 -10.5t1.5 -13.5l11 -18q3 -6 10.5 -8t13.5 2l2 1q6 3 8 10.5t-2 13.5zM575 331h-125q-16 0 -19 -14q-2 -9 3.5 -15.5
t14.5 -6.5h126q14 0 18 12q2 10 -3.5 17t-14.5 7zM513 882h-2q-7 0 -12.5 -5t-5.5 -12v-21q0 -7 5.5 -12t12.5 -5h2q7 0 12.5 5t5.5 12v21q0 7 -5.5 12t-12.5 5zM248 693l18 -10q6 -3 13 -1t11 8l1 1q4 7 2 14t-9 11l-18 10q-6 4 -13 2t-11 -9l-1 -1q-4 -6 -2 -13.5t9 -11.5
zM499 792q-78 -5 -134 -61.5t-60 -133.5q-4 -62 26 -114.5t82 -80.5v-7v-10q0 -11 8 -19t19 -8h9h126h9q12 0 19.5 8t7.5 19v10v7q50 27 79.5 75.5t29.5 106.5q0 90 -65.5 151.5t-155.5 56.5zM588 431h-13v-6v0v-30h-126v36h-13q-48 24 -74.5 71.5t-19.5 103.5
q7 59 49.5 100.5t100.5 48.5q78 8 135 -43t57 -128q0 -49 -26.5 -90.5t-69.5 -62.5zM758 726l-18 -10q-7 -4 -8.5 -11.5t1.5 -13.5l1 -1q4 -6 11 -8t14 1l17 10q7 4 9 11.5t-2 13.5l-1 1q-3 7 -10.5 9t-13.5 -2zM616 635v-4v0v0q1 -3 3 -5q1 -3 3.5 -7t2.5 -3q4 -5 9.5 -5
t9.5 4t4 10q0 1 -3 10q-1 2 -3 5t-4 5t-2 1q-3 3 -6 3q-5 0 -9.5 -4t-4.5 -10zM622 667q1 7 -4 11v0q-33 40 -89 51v0h-3q-6 0 -10 -4t-4 -10q0 -8 8 -11v0q47 -9 77 -43l1.5 -2t4.5 -4t5 -2q5 0 9 4t5 10z" />
    <glyph glyph-name="iconad" unicode="&#xe60d;" 
d="M282 794q42 -31 56 -50q20 -29 46 -66q4 -6 10 -5h116h116q7 -1 11 5q26 39 35 52q34 45 63 61q6 4 12 12q13 15 10 28q-3 12 -14 18.5t-25 3.5q-8 -2 -25 -8q-35 -13 -59 10q-8 7 -11 9q-46 31 -80 2q-12 -11 -25 -20q-6 -4 -10 -2q-20 12 -28 20q-14 12 -33.5 14.5
t-34.5 -7.5q-11 -7 -27 -19q-21 -16 -43 -11q-3 1 -11 3l-12 3q-23 5 -30 5q-12 0 -19.5 -9t-6.5 -19q4 -18 19 -30v0zM931 226q-4 126 -92 213q-18 18 -55 49.5t-51 44.5q-17 16 -83 83q-6 5 -13 5h-122.5h-128.5q-8 0 -11 -4q-50 -59 -135 -130q-73 -60 -109 -136
q-26 -55 -32 -116q0 -1 -1 -10v-28q0 -4 1 -11t1.5 -12.5t1.5 -10.5q11 -76 61 -140q89 -115 252 -142q132 -23 255 12q116 33 182 105q63 69 75 159q5 39 4 69v0zM238 74l116 304h44l124 -304h-46l-35 92h-127l-33 -92h-43zM325 199h103l-31 84q-15 38 -22 63
q-6 -29 -16 -58zM554 74v304h105q35 0 54 -5q26 -6 44 -21q24 -21 36 -52.5t12 -71.5q0 -35 -8 -62t-20.5 -44.5t-27.5 -27.5t-36.5 -15t-48.5 -5h-110zM594 110h65q30 0 47 5.5t28 15.5q14 14 22 38.5t8 58.5q0 48 -15.5 73.5t-38.5 34.5q-16 6 -52 6h-64v-232v0z" />
    <glyph glyph-name="10" unicode="&#xe640;" 
d="M368 254q10 -10 24.5 -10t24.5 10l232 232l-49 48l-232 -232q-10 -10 -10 -24t10 -24zM660 471l-232 -232q-6 -5 -6 -12.5t5.5 -13t13 -5.5t13.5 5l232 232q0 1 1 2l-25 26q-2 -1 -2 -2zM353 314l232 232q1 0 2 2l-26 25l-2 -1l-232 -232q-5 -6 -5 -13.5t5.5 -13t13 -5.5
t12.5 6zM401 220q-20 0 -34.5 6.5t-20 16t-7.5 19t-2 15.5l1 7q-14 0 -23.5 5t-11.5 10l-2 6l-32 -154l159 37q-13 3 -20 11t-7 15v6zM672 614q-14 14 -35 14t-35 -14l-25 -25l127 -127l25 25q14 14 14 35t-14 35zM864 747.5q-72 71.5 -164.5 110t-193.5 38.5t-193.5 -38.5
t-164.5 -109.5q-97 -97 -131.5 -227.5t0 -261t131.5 -227.5q72 -72 164.5 -110.5t193.5 -38.5t193.5 38.5t164.5 110t110 164t38 194t-38 194t-110 164zM828.5 67q-64.5 -65 -148 -99.5t-174.5 -34.5t-174.5 34.5t-148.5 99.5q-87 88 -118.5 205.5t0 235t118.5 204.5
q65 65 148.5 99.5t175 34.5t174.5 -34.5t147.5 -99t99 -148t34.5 -175t-34.5 -174.5t-99 -148z" />
    <glyph glyph-name="mima" unicode="&#xe60e;" 
d="M512 -66q-91 0 -175 36q-81 34 -143 96t-96 143q-36 84 -36 175t36 175q34 81 96 143t143 96q84 36 175 36t175 -36q81 -34 143 -96t96 -143q36 -84 36 -175t-36 -175q-34 -81 -96 -143t-143 -96q-84 -36 -175 -36zM512 794q-111 0 -205.5 -55t-149.5 -149.5t-55 -205.5
t55 -205.5t149.5 -149.5t205.5 -55t205.5 55t149.5 149.5t55 205.5t-55 205.5t-149.5 149.5t-205.5 55zM645 521q0 57 -37.5 93t-96.5 36q-58 0 -95 -39.5t-37 -96.5v-64h-16q-28 0 -47.5 -19.5t-19.5 -46.5v-199q0 -28 19.5 -47.5t47.5 -19.5h298q28 0 47.5 19.5t19.5 47.5
v199q0 27 -19.5 46.5t-47.5 19.5h-16h-33h-200v64q0 43 27.5 73t71.5 30q45 0 73 -26.5t28 -69.5q0 -2 0.5 -4t4.5 -6t11 -4t11 3.5t5 6.5zM695 185q0 -14 -10 -24t-24 -10h-298q-14 0 -24 10t-10 24v199q0 14 10 23.5t24 9.5h298q14 0 24 -9.5t10 -23.5v-199zM512 351
q-14 0 -23.5 -10t-9.5 -23q0 -20 16 -29v-54q0 -7 5 -12t12 -5t12 5t5 12v54q16 9 16 29q0 13 -9.5 23t-23.5 10z" />
    <glyph glyph-name="cuishouchengbenbaobiao" unicode="&#xe633;" 
d="M400 155h-294l-7 608q0 10 -7 17t-17 7v0q-10 -1 -17 -8t-7 -17l7 -631q0 -10 7 -17t17 -7h318q10 0 17 7t7 17t-7 17t-17 7zM274 251h26q20 0 34 14t14 34v154q0 21 -14 35t-34 14h-26q-20 0 -34 -14.5t-14 -34.5v-154q0 -20 14 -34t34 -14zM719 509q12 -8 26 -8h26
q14 0 26 8q22 14 22 40v121q0 20 -14 34t-34 14h-26q-20 0 -34 -14t-14 -34v-121q0 -26 22 -40zM535 453q20 0 34 14t14 34v8v78q0 21 -14 35t-34 14h-25q-19 0 -32 -12q-17 -15 -17 -37v-78v-8q0 -21 17 -36q14 -12 32 -12h25zM857 76q-11 -11 -25 -21q-49 -34 -108 -34
t-108 34q-14 10 -25 21q-58 56 -58 136t58 136q11 11 25 21q49 33 108 33t108 -33q14 -10 25 -21q57 -56 57 -136t-57 -136zM724 456q-101 0 -172.5 -71.5t-71.5 -172.5t71.5 -172.5t172.5 -71.5t172 71.5t71 172.5t-71 172.5t-172 71.5zM775 315l-51 -95l-51 95h-29
l59 -104h-43v-14h51v-28h-51v-15h51v-45h26v45h51v15h-51v28h51v14h-43l59 104h-29z" />
    <glyph glyph-name="tixing" unicode="&#xe649;" 
d="M861 187v0v0q-6 -10 -4.5 -21.5t10.5 -19.5q9 -10 23 -10t24 10q4 4 6 9q50 90 58 191.5t-28.5 199.5t-112.5 171q-91 88 -211.5 118t-240 -4t-207 -125t-117.5 -211.5t4 -239.5t125 -207q76 -74 175 -107t200.5 -21.5t189.5 64.5q2 1 4 3v0l0.5 0.5l0.5 0.5v0v0q2 1 3 3
q10 10 10 23.5t-10 23.5q-9 8 -20.5 9t-21.5 -5v0q-75 -46 -162 -56t-172 18t-151 92q-78 75 -107 177t-3.5 205.5t101 181.5t177.5 107t205.5 3.5t181.5 -100.5q99 -96 118 -232t-48 -251v0v0zM549 150q0 -14 -9.5 -23.5t-23.5 -9.5h-5q-14 0 -24 9.5t-10 23.5v332
q0 14 10 24t24 10h5q14 0 23.5 -10t9.5 -24v-332v0v0zM514 665q-17 0 -29.5 -12t-12.5 -29.5t12.5 -29.5t29.5 -12t29 12t12 29.5t-12 29.5t-29 12v0v0z" />
    <glyph glyph-name="wangluoguanli" unicode="&#xe629;" 
d="M483 -62h-2h-2q-71 10 -135 42l-2 1l-2 1q-86 44 -145.5 121t-79.5 172l-1 3v1q-5 23 -7 46l4 38q5 57 28 100q42 76 133 96l-11 -45q-22 -7 -43 -14q-9 -21 -15 -44q-7 -25 -10 -48v0v-3h85q3 40 9 81l63 18q-9 -51 -12 -99h166v143l179 51l-17 20l-165 178q45 3 90 -2
l2 -1h2q144 -19 247 -122q91 -92 118 -217v-6q13 -68 5 -136l-1 -2v-2q-9 -71 -41 -135l-1 -2l-2 -2q-44 -86 -121 -145.5t-172 -79.5l-3 -1h-1l2 -1h-1q-70 -14 -141 -5v0zM570 628l-182 191l-15 -59q-98 -1 -170.5 -53t-109.5 -139.5t-39 -199.5q7 86 48.5 145t101.5 84.5
t134 23.5l-16 -63l248 70v0zM191 345q2 -27 8 -52v-2v-2q5 -22 14 -45q37 -13 74 -24q-10 62 -11 125h-85v0zM253 168q5 -7 9 -13q14 -18 30 -34q12 -11 24 -21q-9 26 -16 54q-24 7 -47 14v0zM399 49q23 -10 48 -16q23 -7 48 -10v0q6 0 9 -1v100q-68 3 -138 17
q13 -45 33 -90v0zM564 22q23 2 46 7h2h1q20 5 38 11q20 45 35 92q-61 -10 -122 -11v-99v0zM732 81q6 4 15 11q18 14 34 30q21 21 38 45q-33 -12 -67 -21q-9 -32 -20 -65v0zM862 249q4 13 9 28q5 21 8 44l1 3q1 7 1 13l1 2q0 3 1 6h-106q0 -67 -11 -133q48 15 96 37v0z
M881 405q-5 46 -23 90q-49 22 -99 37q13 -65 17 -127h105v0zM811 578q-13 17 -29 33q-26 25 -55 45q9 -29 16 -58q36 -9 68 -20v0zM564 562v-157h152q-5 70 -22 143q-64 12 -130 14v0zM504 181v164h-168q0 -73 14 -142q79 -17 154 -22v0zM702 196q15 72 16 149h-154v-165
q70 2 138 16z" />
    <glyph glyph-name="zhanghu1" unicode="&#xe60f;" 
d="M863 699h-701q-40 0 -68.5 -28t-28.5 -68v-447q0 -40 28.5 -68.5t68.5 -28.5h701q40 0 69 28.5t29 68.5v447q0 40 -29 68t-69 28v0zM909 156q0 -19 -13.5 -32.5t-32.5 -13.5h-701q-19 0 -32.5 13.5t-13.5 32.5v447q0 19 13.5 32t32.5 13h701q19 0 32.5 -13t13.5 -32v-447
v0zM816 543h-200q-7 0 -12.5 -7.5t-5.5 -18t5.5 -18t12.5 -7.5h200q7 0 12.5 7.5t5.5 18t-5.5 18t-12.5 7.5v0zM816 413h-200q-7 0 -12.5 -7.5t-5.5 -18t5.5 -18t12.5 -7.5h200q7 0 12.5 7.5t5.5 18t-5.5 18t-12.5 7.5v0zM816 283h-169q-7 0 -12.5 -7.5t-5.5 -18t5.5 -18
t12.5 -7.5h169q7 0 12.5 7.5t5.5 18t-5.5 18t-12.5 7.5v0zM435 345q46 38 46 98q0 53 -37.5 90t-90.5 37t-91 -37t-38 -90q0 -60 47 -98q-38 -18 -66 -49.5t-41 -72.5q-3 -9 1.5 -18t14.5 -12t19 1.5t12 14.5q15 47 54 75.5t88 28.5t88 -28.5t54 -75.5q5 -17 23 -17q4 0 8 1
q9 3 14 12t2 18q-13 41 -41 72.5t-66 49.5v0zM353 521q33 0 56 -23t23 -55.5t-23 -55.5t-56 -23t-56 23t-23 55.5t23 55.5t56 23v0z" />
    <glyph glyph-name="yijiesuan" unicode="&#xe610;" horiz-adv-x="1036" 
d="M513 879q57 2 108.5 -12.5t84.5 -41.5q40 -31 40 -69q1 -47 -59 -84q-42 -26 -106.5 -36t-130 0.5t-107.5 39.5q-61 42 -47 97q4 17 18 33.5t29 27.5q62 43 170 45v0zM513 879zM293 709q10 -42 52 -71t98.5 -38t115 -5t107.5 25.5t69 55.5q9 15 11 33q10 -59 -20 -95
q-39 -46 -127 -64q-39 -8 -89 -7.5t-83 12.5q-7 2 -20.5 10t-19.5 10q-7 3 -23 7.5t-23 7.5q-26 14 -39 45t-9 74v0zM293 709zM746 622q6 -36 -3.5 -64.5t-30.5 -43.5q-86 -5 -145 -35l-15 -9t-14.5 -8.5t-17 -5.5t-22.5 0q-2 17 -21 52q87 -8 166.5 17.5t100.5 80.5
q0 1 2 16v0zM746 622zM217 560q63 3 118 -13t89 -48q47 -43 27 -92q-19 -46 -84.5 -71t-141.5 -25q-73 1 -138 27.5t-80 73.5q-9 29 3 55t31 40t43 25q52 24 133 28v0zM217 560zM0 387q14 -48 67 -77t116.5 -34.5t128 9.5t100.5 47l1.5 2.5t2.5 2.5t3 -1q-17 -25 -33 -76
q-47 -28 -119.5 -34t-140.5 12t-101 55q-27 31 -25 94v0zM0 387zM995 278q-33 73 -100 119t-158 46q-115 -1 -199 -85q-84 -83 -82 -200q2 -115 84 -196q85 -84 201 -82q118 2 197 83q83 84 82 200q-1 62 -25 115v0zM738 72q-34 9 -99.5 23t-91.5 20q2 20 9 51
q22 -5 79.5 -18.5t87.5 -21.5q58 81 171 243q10 -12 25 -37.5t21 -34.5q-123 -142 -202 -225v0zM738 72zM3 303q11 -44 54 -73t98.5 -37.5t115 -2.5t105.5 26q-4 -34 -4 -51q-42 -19 -99.5 -25.5t-113.5 3.5q-54 9 -97 33.5t-55 60.5q-3 8 -3.5 20.5t-0.5 23v22.5v0zM3 303z
M434 362q1 -2 -1 -6l-5 -6q-2 3 6 12v0zM434 362z" />
    <glyph glyph-name="jiesuan" unicode="&#xe611;" 
d="M803 586l9 28q11 31 -4 61t-47 41l-323 107q-32 11 -62 -4t-41 -47q-1 -5 -1 -10h-3q-33 8 -61.5 -9.5t-36.5 -49.5l-30 -124q-28 -14 -44.5 -40.5t-16.5 -58.5v-426q0 -46 32 -78t78 -32h520q46 0 78 32t32 78v426q0 37 -22 66.5t-57 39.5zM385 755q3 12 14 17
q11 6 23 2l322 -107q12 -4 17.5 -15t1.5 -22l-13 -40h-28q5 30 -11 55q-17 29 -50 37l-279 68q2 3 3 5zM283 691q3 11 13.5 17.5t22.5 3.5l330 -81q12 -3 18 -13t4 -22q-1 -3 -1 -6h-411zM830 54q0 -24 -17 -41.5t-41 -17.5h-520q-24 0 -41 17.5t-17 41.5v426q0 24 17 41.5
t41 17.5h520q24 0 41 -17.5t17 -41.5v-426zM580 400l-55 -107l-13 -26q-5 12 -12 24l-58 109h-48l80 -147h-64v-39h81v-22h-81v-36h81v-67h43v67h81v36h-81v22h81v39h-64l79 147h-50v0z" />
    <glyph glyph-name="guangbo" unicode="&#xe612;" 
d="M522 679q-24 -18 -99.5 -64.5t-107.5 -68.5v0q-1 -1 -1.5 -2.5t-1.5 -1.5q-1 -1 -5.5 -4.5t-8.5 -6t-15 -4.5t-26 -2h-85q-35 0 -35 -33v-204q0 -34 35 -34h85q16 0 26.5 -2t14.5 -4.5t8.5 -6t5.5 -4.5q1 0 1.5 -1.5t1.5 -1.5v0q35 -26 110.5 -73.5t96.5 -63.5
q59 -43 59 21v272v272q0 64 -59 17v0v0v0zM857 424h-144q-13 0 -21.5 -8.5t-8.5 -20.5v-10q0 -12 8.5 -20.5t21.5 -8.5h144q13 0 21.5 8.5t8.5 20.5v9q0 13 -8.5 21.5t-21.5 8.5v0v0v0zM770 695l-103 -102q-8 -9 -8 -21t8 -21l7 -7q9 -8 21 -8t21 8l102 103q9 8 9 20.5
t-9 21.5l-6 6q-9 9 -21.5 9t-20.5 -9v0v0v0zM770 102v0v0q8 -9 20.5 -9t21.5 9l6 7q9 8 9 20.5t-9 21.5l-102 102q-9 9 -21 9t-21 -9l-7 -7q-8 -8 -8 -20.5t8 -20.5l103 -103v0zM689 248z" />
    <glyph glyph-name="wenti-copy" unicode="&#xe626;" 
d="M435 717q-76 0 -114.5 -41.5t-38.5 -112.5h51q1 47 29 74t73 29q74 -3 76 -78q0 -37 -53 -86q-29 -26 -38.5 -47t-9.5 -45v-52h51v52q0 30 37 65q64 56 64 113q0 58 -33.5 93.5t-93.5 35.5zM410 256h51v51h-51v-51zM845 419v355q-1 3 -2 7.5t-6 17t-12.5 21.5t-22.5 17
t-34 8h-717v-733q1 -2 2 -6t7.5 -14.5t16.5 -18.5t30.5 -14.5t46.5 -7.5h281q-5 0 97.5 92t207.5 184zM410 102q-237 1 -256 0q-48 -1 -52 45v13v637h666q10 0 15.5 -2.5t8 -8.5t3 -10.5t0 -13.5t-0.5 -12v-307zM957 276l-105 97l-15 -14l-317 -295l-1 -6l-33 -135l155 28
l5 5l327 305zM619 -10l-72 -14l14 67l225 209l57 -53zM875 228l-58 54l35 33l58 -54z" />
    <glyph glyph-name="xiangxiajiantou" unicode="&#xe627;" 
d="M741 505h-13h-377h-12q-14 0 -20 -12t2 -23l196 -208l5 -6l4 -4q5 -4 13 -4h0.5h0.5h0.5h0.5q7 0 12 4q3 2 4 4l5 6l196 208q8 11 2.5 23t-19.5 12z" />
    <glyph glyph-name="wenti" unicode="&#xe628;" 
d="M513 583q-53 0 -86 -36.5t-33 -111.5t33 -112.5t83 -37.5q19 0 36 6q-27 18 -54 27l25 50q42 -15 81 -44q17 20 25 47q9 28 9 64q0 75 -33 111.5t-86 36.5zM897 439q0 106 -51.5 196.5t-140 143t-193.5 52.5t-193.5 -52.5t-140 -143t-51.5 -196.5q0 -92 39 -172.5
t106 -135.5v0q42 -39 101.5 -73.5t113 -56t103.5 -36.5t77.5 -21.5t30.5 -6.5l-35 140q105 46 169.5 144t64.5 218zM706 177q-20 6 -39 17q-4 1 -58 38q-42 -19 -93 -19q-99 0 -155 58.5t-56 163.5q0 106 56 164.5t153 58.5q95 0 151 -58.5t56 -164.5q0 -55 -15 -98
q-12 -32 -38 -62q32 -23 70 -36z" />
    <glyph glyph-name="chakanzhuanhuan" unicode="&#xe641;" 
d="M101 384q0 112 55 206.5t149.5 149.5t206.5 55t206.5 -55t149.5 -149.5t55 -206.5t-55 -206.5t-149.5 -149.5t-206.5 -55t-206.5 55t-149.5 149.5t-55 206.5zM50 384q0 -94 36.5 -179.5t98.5 -147.5t147.5 -98.5t179.5 -36.5t179.5 36.5t147.5 98.5t98.5 147.5
t36.5 179.5t-36.5 179.5t-98.5 147.5t-147.5 98.5t-179.5 36.5t-179.5 -36.5t-147.5 -98.5t-98.5 -147.5t-36.5 -179.5zM769 160v0l-149 150l2 2v0v0v1v0v0h1v0v0v1v0v0v0h1v1v0v0v0q44 57 44 129q0 87 -61.5 148.5t-148.5 61.5t-148.5 -61.5t-61.5 -148.5t61.5 -148.5
t148.5 -61.5q37 0 70 12q28 10 51 26l149 -149l3 -3v0q7 -6 17 -6q12 0 20 8t8 20q0 10 -7 18zM305 443.5q0 63.5 45 108.5t109 45t109 -45t45 -108.5t-45 -108.5t-109 -45t-109 45t-45 108.5z" />
    <glyph glyph-name="shouye-copy-copy-copy" unicode="&#xe613;" 
d="M922 377l-413 386l-413 -385q-6 -5 -6.5 -13.5t5.5 -14.5t14 -6.5t14 5.5l386 359l385 -360q6 -5 14 -5q9 0 15 6q5 6 5 14t-6 14v0zM922 377zM796 369q-9 0 -14.5 -6t-5.5 -14v-306h-160v213h-214v-213h-160v306q0 8 -6 14t-14 6t-14 -6t-6 -14v-346h240v213h134v-213
h240v346q0 8 -6 14t-14 6v0zM796 369zM656 656h120v-107q0 -8 5.5 -14t14 -6t14.5 6t6 14v147h-160q-9 0 -14.5 -6t-5.5 -14.5t5.5 -14t14.5 -5.5v0zM656 656z" />
    <glyph glyph-name="weibiaoti555" unicode="&#xe614;" 
d="M564 83q0 -22 -6.5 -34t-15.5 -13.5t-17.5 0.5t-15 5.5l-6.5 3.5l-261 220h-40q-19 0 -32.5 13.5t-13.5 32.5v184q0 20 13.5 33t32.5 13h48l253 216q3 1 7 3.5t14.5 5t18.5 0.5t14.5 -14t6.5 -34v-635v0zM664 269q-14 0 -23 10t-8 22.5t10 21.5q36 31 36 78t-35 78
q-10 9 -10.5 21.5t8 22t21 10t22.5 -7.5q56 -50 56 -124q0 -75 -57 -124q-9 -8 -20 -8zM687 150q-21 0 -29 19q-5 12 0 23.5t17 16.5q60 24 95.5 76.5t35.5 115.5t-36 115.5t-96 76.5q-12 5 -17 16.5t0 23.5t16.5 17t23.5 0q76 -31 122 -97q48 -69 48 -152t-47 -152
q-46 -66 -122 -97q-6 -2 -11 -2z" />
    <glyph glyph-name="ai226" unicode="&#xe61e;" 
d="M436 243l55 -55l195 195l-195 196l-55 -55l101 -101h-379v-79h379zM784 735h-548q-32 0 -55 -22.5t-23 -55.5v-156h78v156h548v-547h-548v156h-78v-156q0 -33 23 -56t55 -23h548q32 0 55 23t23 56v547q0 33 -23 55.5t-55 22.5v0z" />
    <glyph glyph-name="guanggaoshouru" unicode="&#xe615;" 
d="M290 -47h377q28 0 28 21q0 11 -8 17.5t-20 6.5h-377q-12 0 -20 -6.5t-8 -17.5q0 -21 28 -21zM501 32v111q0 28 -22 28q-11 0 -17 -8t-6 -20v-111q0 -12 6 -19.5t17 -7.5q22 -1 22 27zM299 673l-107 -279h45l26 72h120l26 -72h45l-107 279h-48zM276 501l46 126h2l46 -126
h-94zM583 673h-101v-279h100q67 0 102 38q34 36 34 102t-33 101q-35 38 -102 38zM652 456q-25 -25 -77 -25h-51v205h51q53 0 78 -24q23 -25 23 -78t-24 -78zM846 815h-668q-52 0 -81.5 -24.5t-29.5 -86.5v-445q0 -46 32.5 -79t78.5 -33h378q-9 20 -13 46h-376
q-22 0 -38.5 16.5t-16.5 39.5v465q0 23 16.5 39.5t38.5 16.5h690q22 0 38.5 -16.5t16.5 -39.5v-357q34 -39 45 -75v422q1 46 -32 78.5t-79 32.5zM761 25q-72 0 -123 51.5t-51 123t51 122.5t123 51t123 -51t51 -123q0 -88 -52 -134q-45 -40 -122 -40zM761 332q-55 0 -94 -39
t-39 -94t39 -94t94 -39q61 0 95 30q38 33 38 103q0 55 -39 94t-94 39zM760 114q-6 0 -10.5 4t-4.5 10v17h-25q-5 0 -8.5 3.5t-3.5 8.5t3.5 9t8.5 4h25v12h-25q-5 0 -8.5 3.5t-3.5 8.5t3.5 9t8.5 4h18l-35 50q-8 12 4 20q12 9 21 -3v0l32 -47l32 47q9 11 21 3t4 -21v0
l-35 -49h18q5 0 8.5 -4t3.5 -9t-3.5 -9t-8.5 -4h-25v-11h25q5 0 8.5 -4t3.5 -9t-3.5 -8.5t-8.5 -3.5h-25v-17q0 -6 -4.5 -10t-10.5 -4z" />
    <glyph glyph-name="baobiao" unicode="&#xe62b;" 
d="M929 76h-779q-11 0 -19.5 7.5t-8.5 18.5v616q0 10 -8 17.5t-19.5 7.5t-19.5 -7.5t-8 -17.5v-642q0 -21 16 -36t39 -15h807q12 0 20 7.5t8 18t-8 18t-20 7.5v0v0zM206 281h55q16 0 25 12l59 88l84 -175q6 -12 19 -15q10 -2 20 3t14 15l114 344l83 -251q2 -9 9.5 -15
t17.5 -6h139q4 0 7 1q16 -26 49 -26q23 0 39 15t16 36t-16 36t-39 15q-33 0 -49 -26q-3 1 -7 1h-118l-105 315q-3 11 -13 16t-21 1q-8 -2 -13 -7q-4 -4 -6 -10l-119 -359l-75 156q-2 5 -6 8l-1 1v0q-14 12 -31 5q-8 -4 -13 -12l-77 -114h-41q-12 0 -20 -7.5t-8 -18.5
t8 -18.5t20 -7.5v0v0z" />
    <glyph glyph-name="gantanhao" unicode="&#xe637;" 
d="M938 106l-371 644q-18 31 -54.5 31t-54.5 -31l-372 -644q-18 -32 0 -63.5t55 -31.5h743q36 1 54 32t0 63zM512 140q-22 0 -38 15.5t-16 38t16 38t38 15.5t38 -15.5t16 -38t-16 -38t-38 -15.5zM567 342q0 -23 -16 -39t-39 -16t-39 16t-16 39v225q0 23 16 39.5t39 16.5
t39 -16.5t16 -39.5v-225z" />
    <glyph glyph-name="fangxing02" unicode="&#xe62c;" 
d="M928 -64h-832q-26 0 -45 19t-19 45v640q0 26 19 45t45 19h160v-64h-160v-640h832v640h-160v64h160q26 0 45 -19t19 -45v-640q0 -26 -19 -45t-45 -19zM384 704h256v-64h-256v64zM320 829q-14 0 -23 -9t-9 -23v-189q0 -14 9 -23t23 -9t23 9t9 23v189q0 14 -9 23t-23 9v0z
M704 829q-14 0 -23 -9t-9 -23v-189q0 -14 9 -23t23 -9t23 9t9 23v189q0 14 -9 23t-23 9v0zM32 480h960v-64h-960v64zM192 320h64v-64h-64v64zM384 320h64v-64h-64v64zM576 320h64v-64h-64v64zM768 320h64v-64h-64v64zM192 160h64v-64h-64v64zM384 160h64v-64h-64v64z
M576 160h64v-64h-64v64zM768 160h64v-64h-64v64z" />
    <glyph glyph-name="30wangzhanguanli" unicode="&#xe616;" 
d="M594 51v-23q0 -5 -3.5 -8.5t-8.5 -3.5h-298q-5 0 -8.5 3.5t-3.5 8.5v23q0 5 3.5 8t8.5 3h80v104h-276q-9 0 -16 6.5t-7 16.5v540q0 9 7 16t16 7h713q9 0 16 -7t7 -16v-268q-24 7 -48 8v227q0 5 -3.5 8t-7.5 3h-641q-5 0 -8 -3t-3 -8v-475q0 -4 3 -7.5t8 -3.5h405
q2 -23 9 -44h-36v-104h80q5 0 8.5 -3t3.5 -8zM724 466v188q0 10 -10 10h-539q-10 0 -10 -10v-390q0 -10 10 -10h353q7 80 62 139.5t134 72.5zM944 264q6 0 10.5 -4.5t4.5 -10.5v-30q0 -6 -4.5 -10.5t-10.5 -4.5h-18q-7 0 -12.5 -4t-7.5 -10l-10 -26q-8 -13 3 -24l13 -12
q11 -11 0 -22l-21 -21q-11 -11 -22 0l-12 13q-11 10 -24 3l-26 -10q-14 -5 -14 -20v-18q0 -6 -4.5 -10.5t-10.5 -4.5h-30q-7 0 -11 4.5t-4 10.5v18q0 15 -15 20l-25 10q-13 7 -24 -3l-13 -13q-11 -11 -21 0l-22 21q-10 11 0 22l13 12q11 11 4 24l-11 26q-4 14 -19 14h-18
q-6 0 -10.5 4.5t-4.5 10.5v30q0 6 4.5 10.5t10.5 4.5h18q6 0 12 4.5t7 10.5l11 25q7 13 -4 24l-13 13q-10 10 0 21l22 21q10 11 21 0l13 -12q11 -11 24 -4l25 10q15 5 15 20v18q0 6 4 10.5t11 4.5h30q6 0 10.5 -4.5t4.5 -10.5v-18q0 -6 4 -12t10 -8l26 -10q13 -7 23 4l13 12
q11 11 22 0l21 -21q11 -11 0 -21l-13 -13q-10 -11 -3 -24l10 -25q5 -15 20 -15h18zM838 234q0 31 -22 53.5t-53 22.5t-53.5 -22.5t-22.5 -53.5t22.5 -53t53.5 -22t53 22t22 53v0z" />
    <glyph glyph-name="guanliwang" unicode="&#xe62d;" 
d="M986 385q0 97 -37.5 184.5t-101 151t-151.5 101.5t-184 38t-184 -38t-151.5 -101.5t-101 -151t-37.5 -184t37.5 -184t101 -151.5t151.5 -101.5t184 -37.5q58 0 114 14l7 -17h98l31 74h1q12 5 20 9h1l74 -30l69 69l-30 74v1q5 11 9 20v1l74 31v97l-11 5q17 62 17 126v0z
M915 352h2q-3 -33 -11 -66v0q-5 13 -9 21v0l18 45v0zM917 419h-27l-32 32l-74 -30h-1q-8 4 -18 8q-5 93 -25 171q51 13 95 32q72 -94 82 -213v0zM467 307v-1q-5 -9 -8 -19v-1l-75 -32v-64q-19 -2 -33 -4q-21 77 -25 166h123l18 -45v0zM602 429h-1q-9 -3 -19 -8h-1l-75 29
l-31 -31h-149q4 89 25 166q161 -27 322 0q10 -38 17 -82h-56l-32 -74v0zM787 685q-32 -12 -68 -21q-21 55 -49 96q65 -27 117 -75v0zM512 792q39 0 75.5 -37.5t63.5 -104.5q-139 -22 -278 0q27 67 63.5 104.5t75.5 37.5v0zM354 760q-28 -41 -49 -96q-36 9 -68 21
q52 48 117 75v0zM189 632q44 -19 95 -32q-21 -83 -25 -181h-152q10 119 82 213v0zM107 352h152q4 -98 25 -181q-51 -13 -95 -32q-72 94 -82 213v0zM237 86q32 12 68 21q21 -55 49 -96q-65 27 -117 75v0zM373 121q36 6 76 8l9 -4h1q3 -9 8 -20v0l-30 -75l46 -46
q-65 25 -110 137v0zM923 194l-63 -26l-4 -13q-6 -19 -15 -36l-6 -12l25 -64l-15 -16l-64 26l-12 -6q-16 -9 -36 -15l-13 -4l-27 -63h-22l-27 63l-13 4q-19 6 -35 14l-12 7l-64 -26l-16 16l25 65l-6 11q-9 16 -14 35l-4 13l-64 27v23l64 28l4 12q5 19 14 35l6 12l-25 64
l16 16l64 -26l12 7q16 9 34 14l13 4l28 63h22l28 -63l13 -4q19 -6 35 -15l12 -6l64 26l16 -16l-26 -64l6 -12q9 -16 15 -35l4 -13l63 -27v-23v0v0zM681 329q-51 0 -87.5 -36.5t-36.5 -87.5t36.5 -87.5t87.5 -36.5t87.5 36.5t36.5 87.5t-36.5 87.5t-87.5 36.5v0zM681 147
q-24 0 -41.5 17t-17.5 41t17.5 41.5t41.5 17.5t41 -17.5t17 -41.5t-17 -41t-41 -17v0z" />
    <glyph glyph-name="xiaoxizhongxin1" unicode="&#xe617;" 
d="M586 -10v0q35 45 41 45q156 29 251 138.5t95 258.5q1 112 -60.5 205.5t-168 147t-232.5 53.5t-233 -53.5t-169 -147t-62 -205.5q0 -149 96 -258.5t250 -138.5q5 0 41 -45v0q27 -35 42.5 -49.5t31.5 -14.5q15 0 30.5 14t46.5 50zM621 93q-14 -2 -26 -14.5t-41 -49.5v0
l-42 -45l-10 10q-6 6 -25 32q-32 40 -44.5 52.5t-26.5 14.5q-138 24 -222.5 119.5t-84.5 225.5q0 95 55.5 176t151.5 128.5t209 47.5t209 -47.5t151.5 -128.5t55.5 -176q-2 -132 -86.5 -226.5t-223.5 -118.5zM282 425.5q0 19.5 13 34t31.5 14.5t31.5 -14.5t13 -34t-13 -33.5
t-31.5 -14t-31.5 14t-13 33.5zM467 425.5q0 19.5 13 34t32 14.5t32 -14.5t13 -34t-13 -33.5t-32 -14t-32 14t-13 33.5zM653 425.5q0 19.5 13 34t31.5 14.5t31.5 -14.5t13 -34t-13 -33.5t-31.5 -14t-31.5 14t-13 33.5z" />
    <glyph glyph-name="guanli" unicode="&#xe618;" 
d="M520.5 734q16.5 0 33 -2t38.5 -11t38 -23.5t27.5 -42.5t11.5 -65v-98q2 -38 -18 -70q-10 -16 -34 -42q-31 -32 -31 -48l35 -1q0 5 21 27q27 28 38 46q12 19 17.5 41.5t6 33t-0.5 14.5v97q0 47 -15.5 82.5t-42.5 56t-58 30t-66 9.5t-66.5 -9.5t-58.5 -30t-42.5 -56
t-15.5 -82.5v-96q-4 -48 23 -90q11 -18 38 -46q20 -21 21 -26q-2 -13 -15.5 -27.5t-38.5 -30.5t-42 -25.5t-49 -25.5q-75 -38 -94 -56q-25 -23 -38 -52t-13.5 -40.5t-0.5 -18.5l2 -15h428v33h-394q6 38 39 68q17 15 87 51q30 16 45.5 24t40.5 24t38.5 28t25.5 28t14 32v3
q0 16 -31 48q-24 26 -34 42q-20 31 -18 71v97q0 37 11.5 65t27.5 42.5t38.5 23.5t38.5 11t32.5 2zM755 2h-65q-9 0 -9 9v21q-16 4 -30 13l-15 -15q-6 -6 -12 0l-47 46q-2 3 -2 6t2 6l15 15q-7 14 -12 31h-21q-9 0 -9 8v66q0 8 9 8h21q5 15 13 30l-16 16q-2 2 -2 5.5t2 5.5
l47 47q6 6 12 0l16 -16q14 8 29 12v23q0 8 9 8h65q9 0 9 -8v-23q15 -4 29 -12l16 16q6 6 12 0l47 -47q2 -2 2 -5.5t-2 -5.5l-16 -16q8 -14 13 -30h21q9 0 9 -8v-66q0 -8 -9 -8h-21q-5 -16 -13 -31l16 -15q2 -3 2 -6t-2 -6l-47 -46q-2 -3 -5.5 -3t-6.5 3l-15 14
q-14 -8 -30 -12v-21q0 -9 -9 -9v0zM701 41h43v16q0 6 5 7q18 4 33 14q5 3 9 -1l11 -12l30 30l-12 12q-4 4 -1 9q10 15 14 32q1 5 7 5h16v43h-17q-5 0 -7 5q-4 18 -13 32q-3 5 1 9l12 12l-30 30l-12 -12q-4 -4 -9 -1q-15 9 -32 13q-5 1 -5 7v18h-43v-18q0 -6 -5 -7
q-17 -4 -32 -13q-5 -3 -9 1l-12 12l-30 -30l12 -12q4 -4 1 -9q-9 -15 -13 -32q-2 -5 -7 -5h-17v-43h16q6 0 7 -5q4 -17 14 -32q2 -5 -1 -9l-12 -12l30 -30l11 12q4 4 9 1q16 -10 33 -14q5 -1 5 -7v-16v0v0zM722 106q-28 0 -48 20t-20 48.5t20 49t48.5 20.5t48.5 -20.5
t20 -49t-20 -48.5t-49 -20v0zM722 217q-17 0 -29.5 -12.5t-12.5 -30t12.5 -30t30 -12.5t30 12.5t12.5 30t-12.5 30t-30.5 12.5v0z" />
    <glyph glyph-name="xuankuang" unicode="&#xe699;" 
d="M827 -62h-630q-54 0 -92.5 38.5t-38.5 92.5v630q1 57 27 94t78 37h682q52 0 78.5 -36.5t26.5 -94.5v-630q0 -54 -38.5 -92.5t-92.5 -38.5zM906 699q0 33 -23 56t-56 23h-630q-33 0 -56 -23t-23 -56v-630q0 -33 23 -56t56 -23h630q33 0 56 23t23 56v630z" />
    <glyph glyph-name="checkbox_true_part_focus" unicode="&#xe647;" 
d="M818 480l-340 -339q-12 -12 -25 0l-50 50l-25 26l-116 123q-6 4 -6 12q0 7 6 13l51 46q5 5 12 5q8 0 13 -5l115 -118q13 -13 25 0l264 263q6 5 13 5t12 -5l51 -51q5 -5 5 -12.5t-5 -12.5zM748 857h-472q-98 0 -167.5 -69.5t-69.5 -167.5v-472q0 -98 69.5 -167.5
t167.5 -69.5h472q98 0 167.5 69.5t69.5 167.5v472q0 98 -69.5 167.5t-167.5 69.5z" />
  </font>
</defs>
</svg>
